<?xml version="1.0" standalone="no"?>
<!DOCTYPE svg PUBLIC "-//W3C//DTD SVG 1.1//EN" "http://www.w3.org/Graphics/SVG/1.1/DTD/svg11.dtd" >
<svg xmlns="http://www.w3.org/2000/svg">
<metadata>
<json>
<![CDATA[
{
	"fontFamily": "Font-fitin",
	"majorVersion": 1,
	"minorVersion": 2,
	"version": "Version 1.2",
	"fontId": "Font-fitin",
	"psName": "Font-fitin",
	"subFamily": "Regular",
	"fullName": "Font-fitin",
	"description": "Font generated by IcoMoon."
}
]]>
</json>
</metadata>
<defs>
<font id="Font-fitin" horiz-adv-x="1024">
<font-face units-per-em="1024" ascent="960" descent="-64" />
<missing-glyph horiz-adv-x="1024" />
<glyph unicode="&#x20;" horiz-adv-x="512" d="" />
<glyph unicode="&#xe900;" glyph-name="minus" data-tags="minus" d="M256 499.2h512c30.72 0 51.2-20.48 51.2-51.2v0c0-30.72-20.48-51.2-51.2-51.2h-512c-30.72 0-51.2 20.48-51.2 51.2v0c0 30.72 20.48 51.2 51.2 51.2z" />
<glyph unicode="&#xe901;" glyph-name="ar" data-tags="ar-0" horiz-adv-x="1373" d="M686.455 362.193c-27.845 0-686.455-1.705-686.455-158.544 0-123.312 401.758-151.156 572.804-157.407l-56.826-51.143c-6.846-5.971-11.147-14.709-11.147-24.451 0-8.038 2.928-15.391 7.775-21.053l-0.037 0.044 3.41-3.41c7.078-6.274 16.446-10.106 26.708-10.106s19.63 3.832 26.75 10.142l-0.042-0.037 107.969 97.74c7.353 6.585 11.959 16.108 11.959 26.707 0 9.186-3.46 17.564-9.147 23.902l0.029-0.033-98.877 106.264c-7.251 7.025-17.15 11.355-28.059 11.355-9.386 0-18.023-3.205-24.877-8.58l0.088 0.066c-8.12-5.958-13.332-15.465-13.332-26.19 0-7.010 2.227-13.5 6.012-18.801l-0.067 0.099 2.841-3.41 38.073-40.915c-241.509 9.092-392.098 42.051-454.606 68.759-8.064 2.866-13.734 10.431-13.734 19.321s5.67 16.455 13.591 19.276l0.143 0.044c75.010 32.391 275.605 71.032 579.054 71.032s504.044-38.642 579.054-71.032c8.064-2.866 13.734-10.431 13.734-19.321s-5.67-16.455-13.591-19.276l-0.143-0.044c-64.781-27.845-227.303-62.508-486.428-69.896-1.33 0.181-2.868 0.284-4.429 0.284-19.144 0-34.664-15.519-34.664-34.664s15.519-34.664 34.664-34.664c1.562 0 3.099 0.103 4.606 0.303l-0.177-0.019c157.407 4.546 592.693 28.981 592.693 157.976 1.705 157.976-656.906 159.68-685.319 159.68zM726.801 437.771h-113.651l-44.892 118.766h-210.824l-43.188-118.766h-113.651l205.709 522.229h113.651zM532.457 644.049l-72.169 194.344-70.464-193.776zM783.059 437.771v522.229h221.62c5.174 0.252 11.238 0.396 17.334 0.396 37.139 0 73.033-5.334 106.957-15.277l-2.684 0.674c25.734-9.683 46.687-27.149 60.507-49.492l0.296-0.514c14.281-22.603 22.756-50.111 22.756-79.598 0-0.984-0.009-1.966-0.028-2.946l0.002 0.147c0.089-1.858 0.139-4.035 0.139-6.224 0-35.377-13.195-67.671-34.931-92.232l0.128 0.147c-26.787-26.925-62.743-44.704-102.79-48.257l-0.633-0.045c21.77-12.268 40.47-26.803 56.756-43.683l0.070-0.073c21.414-24.958 41.311-52.636 58.739-81.953l1.496-2.717 61.372-100.582h-123.88l-76.147 113.651c-18.885 29.027-37.585 54.049-57.729 77.808l0.903-1.093c-8.566 9.437-19.229 16.811-31.265 21.407l-0.557 0.187c-15.587 5.258-33.543 8.365-52.203 8.523l-0.077 0.001h-21.026v-217.643zM888.755 738.948h77.283c6.33-0.356 13.737-0.558 21.192-0.558 26.062 0 51.546 2.478 76.228 7.212l-2.521-0.402c12.307 4.056 22.468 11.827 29.424 21.969l0.125 0.194c6.795 10.424 10.837 23.182 10.837 36.885 0 0.818-0.014 1.632-0.043 2.443l0.003-0.118c0.042 0.855 0.066 1.856 0.066 2.863 0 15.15-5.389 29.041-14.356 39.86l0.084-0.104c-10.098 11.031-23.922 18.506-39.466 20.426l-0.312 0.031q-13.070 0-76.715 0h-82.397z" />
<glyph unicode="&#xe902;" glyph-name="error" data-tags="error" d="M554.667 192.683c26.453-16.384 42.667-46.763 42.667-79.616-0.017-24.981-9.473-47.751-24.993-64.938l0.076 0.085c-14.898-16.49-36.359-26.807-60.23-26.807-11.866 0-23.137 2.549-33.294 7.131l0.511-0.206c-31.829 14.165-52.651 47.616-52.736 84.736 0 32.853 16.213 63.147 42.667 79.616 12.098 7.72 26.847 12.304 42.667 12.304s30.569-4.584 42.991-12.497l-0.324 0.193zM508.928 874.581c35.84 1.877 66.304-27.989 68.011-66.56v-6.571l-22.272-504.747c-1.024-24.491-19.797-43.861-42.667-43.861-22.784 0-41.557 19.371-42.667 43.861l-22.187 504.747c-1.707 38.571 25.941 71.339 61.781 73.131z" />
<glyph unicode="&#xe903;" glyph-name="close" data-tags="close" d="M609.673 448.348l393.472-393.472c14.913-12.826 24.3-31.718 24.3-52.802 0-38.394-31.124-69.518-69.518-69.518-21.084 0-39.976 9.386-52.725 24.208l-0.077 0.092-393.472 393.472-393.472-393.472c-12.077-10.39-27.909-16.716-45.218-16.716-38.394 0-69.518 31.124-69.518 69.518 0 17.31 6.326 33.142 16.793 45.31l-0.077-0.092 393.472 393.472-393.472 393.472c-10.39 12.077-16.716 27.909-16.716 45.218 0 38.394 31.124 69.518 69.518 69.518 17.31 0 33.142-6.326 45.31-16.793l-0.092 0.077 393.472-393.472 393.472 393.472c12.826 14.913 31.718 24.3 52.802 24.3 38.394 0 69.518-31.124 69.518-69.518 0-21.084-9.386-39.976-24.208-52.725l-0.092-0.077z" />
<glyph unicode="&#xe904;" glyph-name="vr" data-tags="vr" d="M1013.961 655.209c0 49.795-53.409 92.361-153.801 124.085-99.746 29.628-214.352 46.678-332.94 46.678-5.352 0-10.695-0.035-16.030-0.104l0.81 0.008c-5.693 0.097-12.41 0.152-19.139 0.152-117.013 0-230.143-16.627-337.156-47.648l8.537 2.119c-100.794-31.724-154.202-74.692-154.202-125.289v-441.725c0-56.22 69.873-104.408 196.769-136.132l21.283-5.22v249.776c81.848 18.669 175.84 29.367 272.33 29.367 4.071 0 8.138-0.019 12.201-0.057l-0.622 0.005c3.49 0.034 7.615 0.054 11.745 0.054 96.433 0 190.366-10.699 280.679-30.975l-8.514 1.606v-248.973l21.283 5.22c126.896 31.724 196.769 80.314 196.769 136.132v0zM193.958 117.509c-93.164 25.7-149.785 62.243-149.785 95.975-0.029 0.48-0.045 1.041-0.045 1.606s0.016 1.126 0.049 1.683l-0.004-0.077c3.614 33.33 59.834 68.668 149.785 93.967v-193.958zM830.042 117.509v193.958c89.951-25.299 146.171-60.235 149.785-93.967 0.029-0.48 0.045-1.041 0.045-1.606s-0.016-1.126-0.049-1.683l0.004 0.077c0-34.535-56.621-71.078-149.785-96.778zM979.827 620.273c-49.014-30.456-106.324-53.129-167.587-64.576l-3.080-0.478-13.252-2.811v-173.478h34.133v145.769c56.537 12.157 106.591 31.005 152.762 56.093l-2.977-1.48v-298.767c-34.013 26.776-74.28 47.374-118.124 59.29l-2.347 0.543c-98.436 28.899-211.523 45.525-328.493 45.525-6.633 0-13.253-0.053-19.86-0.16l0.996 0.013c-5.85 0.102-12.75 0.161-19.665 0.161-116.832 0-229.78-16.631-336.606-47.655l8.512 2.117c-46.185-12.494-86.447-33.089-121.197-60.383l0.726 0.55v298.365c43.173-23.386 93.201-42.215 145.919-53.894l3.866-0.719v-145.769h34.133v173.879l-13.252 2.811c-64.296 11.934-121.589 34.314-172.92 65.524l2.253-1.273v35.74c0.402 65.054 192.753 136.132 468.229 136.132s467.827-71.078 467.827-136.132v-36.141zM454.576 666.855h48.188l-75.495-224.477h-43.771l-75.093 224.477h49.393l48.188-172.273 48.59 170.265zM672.627 661.233c8.33-3.635 15.323-8.954 20.808-15.569l0.074-0.092c9.492-11.025 15.272-25.482 15.272-41.289 0-0.449-0.005-0.897-0.014-1.344l0.001 0.067c-0.124-11.488-3.083-22.258-8.209-31.679l0.177 0.356c-5.627-10.381-14.963-18.148-26.188-21.601l-0.316-0.084c9.261-3.214 16.788-9.441 21.583-17.485l0.102-0.184c4.138-8.991 6.552-19.509 6.552-30.591 0-1.529-0.046-3.047-0.136-4.553l0.010 0.207v-15.26c-0.299-3.129-0.469-6.765-0.469-10.441s0.17-7.312 0.503-10.901l-0.034 0.46c0.906-5.423 4.016-9.984 8.36-12.806l0.073-0.045v-5.622h-49.795c-2.948 9.349-4.701 20.109-4.818 31.261l-0.001 0.061v20.48c0.148 1.332 0.232 2.876 0.232 4.439 0 8.996-2.79 17.339-7.553 24.213l0.092-0.141c-6.075 4.672-13.79 7.487-22.162 7.487-1.53 0-3.038-0.094-4.519-0.277l0.177 0.018h-45.779v-87.944h-45.377v224.477h106.014c0.72 0.019 1.567 0.030 2.417 0.030 11.663 0 22.842-2.072 33.189-5.867l-0.669 0.215zM577.054 627.903v-60.235h49.795c0.905-0.055 1.964-0.087 3.029-0.087 7.005 0 13.693 1.359 19.815 3.828l-0.356-0.127c8.049 4.342 13.425 12.713 13.425 22.34 0 1.043-0.063 2.071-0.186 3.081l0.012-0.121c0.126 1.006 0.198 2.171 0.198 3.353 0 10-5.148 18.798-12.939 23.887l-0.109 0.067c-5.573 2.573-12.094 4.074-18.965 4.074-0.815 0-1.626-0.021-2.431-0.063l0.113 0.005z" />
<glyph unicode="&#xe905;" glyph-name="facebook" data-tags="facebook" d="M1024 850.278v-804.557c0-60.621-49.152-109.722-109.722-109.722h-194.97v405.043h138.496l19.866 154.522h-158.362v98.714c0 44.8 12.339 75.213 76.8 75.213h81.92v138.24c-34.985 3.947-75.54 6.198-116.621 6.198-0.94 0-1.881-0.001-2.821-0.004h0.146c-4.030 0.31-8.727 0.487-13.466 0.487-102.9 0-186.317-83.417-186.317-186.317 0-6.519 0.335-12.959 0.988-19.305l-0.066 0.795v-114.074h-139.315v-154.522h139.213v-404.992h-450.048c-60.598 0-109.722 49.124-109.722 109.722v0 804.557c0 60.621 49.152 109.722 109.722 109.722h804.557c60.621 0 109.722-49.152 109.722-109.722z" />
<glyph unicode="&#xe906;" glyph-name="instagram" data-tags="instagram" d="M512.205 710.4c-145.004 0-262.554-117.549-262.554-262.554s117.549-262.554 262.554-262.554c145.004 0 262.554 117.549 262.554 262.554v0c0 0.122 0 0.266 0 0.41 0 144.778-117.366 262.144-262.144 262.144-0.144 0-0.288 0-0.432 0h0.022zM512.205 277.197c-94.275 0-170.701 76.425-170.701 170.701s76.425 170.701 170.701 170.701v0c94.275 0 170.701-76.425 170.701-170.701s-76.425-170.701-170.701-170.701v0zM846.746 721.152c0-33.932-27.508-61.44-61.44-61.44s-61.44 27.508-61.44 61.44c0 33.932 27.508 61.44 61.44 61.44v0c0.107 0.001 0.233 0.001 0.359 0.001 33.734 0 61.082-27.347 61.082-61.082 0-0.072 0-0.145 0-0.217v0.011-0.154zM1020.826 658.995c0.043 1.909 0.068 4.159 0.068 6.414 0 80.682-31.529 154-82.938 208.305l0.131-0.14c-54.43 51.19-127.934 82.644-208.784 82.644-2.092 0-4.178-0.021-6.26-0.063l0.311 0.005c-84.531 4.813-337.92 4.813-422.502 0-1.811 0.039-3.945 0.061-6.084 0.061-80.741 0-154.144-31.416-208.653-82.69l0.157 0.147c-51.097-54.265-82.496-127.576-82.496-208.222 0-2.199 0.023-4.393 0.070-6.582l-0.005 0.327c-5.12-84.378-5.12-337.92 0-422.349-0.043-1.909-0.068-4.159-0.068-6.414 0-80.682 31.529-154 82.938-208.305l-0.131 0.14c54.494-51.246 128.080-82.732 209.020-82.732 1.829 0 3.653 0.016 5.474 0.048l-0.274-0.004c84.531-4.813 337.92-4.813 422.502 0 1.909-0.043 4.159-0.068 6.414-0.068 80.682 0 154 31.529 208.305 82.938l-0.14-0.131c51.279 54.45 82.791 128.016 82.791 208.941 0 1.982-0.019 3.96-0.057 5.934l0.004-0.296c4.813 84.378 4.813 337.664 0 422.298l0.205-0.205zM911.411 146.176c-17.949-44.629-52.651-79.331-96.12-96.866l-1.16-0.414c-67.43-26.726-227.328-20.48-302.080-20.48s-234.65-5.939-302.080 20.48c-44.629 17.949-79.331 52.651-96.866 96.12l-0.414 1.16c-26.726 67.43-20.48 227.328-20.48 302.080s-5.939 234.65 20.48 302.080c17.949 44.629 52.651 79.331 96.12 96.866l1.16 0.414c67.43 26.726 227.328 20.48 302.080 20.48s234.65 5.939 302.080-20.48c44.629-17.949 79.331-52.651 96.866-96.12l0.414-1.16c26.726-67.43 20.48-227.328 20.48-302.080s6.246-234.906-20.48-302.080z" />
<glyph unicode="&#xe907;" glyph-name="cart" data-tags="cart" d="M316.774 291.174h538.266c64.922 0.256 117.504 51.763 117.76 115.405v228.301l-1.28 1.229v2.56l-2.56 3.789c0 0 0 0.001 0 0.001 0 0.707-0.573 1.28-1.28 1.28-0.018 0-0.036 0-0.054-0.001h0.003l-1.28 1.229c0 0.707-0.573 1.28-1.28 1.28v0c0 1.28-1.28 1.28-1.28 2.56l-4.966 4.813-1.331 1.28c-0.672 0.669-1.552 1.13-2.535 1.277l-0.025 0.003-6.451 3.789c-1.008 0.15-1.888 0.611-2.56 1.28v0h-2.56l-678.4 91.546v96.358l-1.28 3.789c0 1.28 0 1.28-1.28 2.56v1.229c0.001 0.019 0.002 0.041 0.002 0.063 0 0.388-0.18 0.733-0.46 0.959l-0.002 0.002c-0.223 0.175-0.508 0.281-0.818 0.281-0.091 0-0.18-0.009-0.266-0.027l0.009 0.001-4.966 6.298c-1.28 1.28-1.28 1.28-2.56 1.28-0.629 0.662-1.451 1.134-2.377 1.326l-0.030 0.005-1.536 1.28-152.525 63.334c-3.791 1.801-8.236 2.853-12.928 2.853s-9.137-1.052-13.115-2.932l0.187 0.079c-7.45-3.953-13.299-10.082-16.798-17.534l-0.098-0.232c-1.837-3.702-2.912-8.061-2.912-12.672s1.075-8.97 2.988-12.842l-0.076 0.17c3.584-7.936 10.086-14.234 18.227-17.715l126.72-53.248v-578.099c0-54.477 38.81-101.478 93.184-112.845-7.587-14.741-12.035-32.169-12.035-50.635 0-29.868 11.636-57.019 30.622-77.166l-0.053 0.056c21.62-22.919 52.195-37.188 86.102-37.188 15.135 0 29.606 2.843 42.908 8.024l-0.806-0.276c43.659 16.576 74.187 57.932 74.496 106.458v0.038c-0.239 17.458-4.040 33.967-10.708 48.918l0.315-0.79h221.286c-6.656-15.206-10.24-31.59-10.394-48.128 0-63.078 52.122-114.176 116.429-114.176 64.358 0 116.48 51.098 116.48 114.176 0 62.976-52.122 114.074-116.48 114.074h-513.638c-0.138-0.001-0.301-0.002-0.464-0.002-27.429 0-49.702 22.077-50.019 49.431v62.136c15.974-6.554 33.126-10.035 50.483-10.24zM266.342 405.35v280.218l639.181-86.17v-193.946c-0.317-27.384-22.59-49.461-50.019-49.461-0.163 0-0.326 0.001-0.489 0.002h-538.241c-27.226 0.668-49.192 22.278-50.428 49.295l-0.004 0.113zM347.853 78.336c0 26.624 22.016 48.179 49.152 48.179 27.187 0 49.203-21.555 49.203-48.179s-22.016-48.23-49.152-48.23c-0.035 0-0.077 0-0.118 0-13.507 0-25.754 5.392-34.707 14.141l0.009-0.009c-8.878 8.657-14.386 20.735-14.387 34.099v0zM878.387 78.336c0-26.624-22.016-48.23-49.152-48.23-0.168-0.002-0.367-0.003-0.565-0.003-26.731 0-48.43 21.54-48.689 48.209v0.025c0 26.624 22.016 48.179 49.203 48.179 26.73-0.19 48.413-21.533 49.151-48.111l0.001-0.068z" />
<glyph unicode="&#xe908;" glyph-name="plus" data-tags="plus" d="M563.2 704c0 28.277-22.923 51.2-51.2 51.2s-51.2-22.923-51.2-51.2v0-204.8h-204.8c-28.277 0-51.2-22.923-51.2-51.2s22.923-51.2 51.2-51.2v0h204.8v-204.8c0-28.277 22.923-51.2 51.2-51.2s51.2 22.923 51.2 51.2v0 204.8h204.8c28.277 0 51.2 22.923 51.2 51.2s-22.923 51.2-51.2 51.2v0h-204.8v204.8z" />
<glyph unicode="&#xe909;" glyph-name="user" data-tags="user" d="M533.862 407.296c72.192-3.84 138.906 39.782 165.99 108.544 19.994 44.179 31.645 95.791 31.645 150.124 0 42.431-7.105 83.202-20.191 121.188l0.783-2.614c-20.531 66.202-77.414 113.664-144.794 120.832-10.36 2.152-22.265 3.383-34.458 3.383s-24.098-1.232-35.598-3.578l1.14 0.194c-67.43-7.526-124.16-54.938-144.998-121.088-12.057-35.329-19.017-76.029-19.017-118.354 0-54.365 11.483-106.049 32.156-152.757l-0.953 2.413c28.621-68.454 95.642-111.616 168.243-108.288zM405.709 759.142c13.414 52.326 58.675 89.498 111.411 91.392 5.581 0 11.162 1.126 16.742 1.126 5.939 0.154 11.93-0.205 17.818-1.126 52.89-1.485 98.406-38.81 111.411-91.392 19.302-70.144 15.36-144.896-11.162-212.48-16.845-50.893-64.666-83.968-116.941-81.101-52.429-3.277-100.454 30.003-116.992 81.101-15.375 36.756-24.307 79.465-24.307 124.261 0 31.4 4.388 61.775 12.585 90.545l-0.567-2.326zM916.019 141.158c-1.126-11.469-1.126-24.064-1.126-35.43-1.341-16.578-11.294-30.556-25.334-37.563l-0.266-0.12c-7.834-4.608-15.616-8.038-23.45-12.595-18.944-9.216-37.888-18.278-56.832-25.088-49.664-18.586-101.171-31.59-153.6-38.912-40.602-5.837-81.562-8.909-122.573-9.216-102.4-0.614-203.827 19.558-298.547 59.392-21.023 8.578-39.029 18.193-55.89 29.395l1.157-0.723c-11.19 7.258-19.258 18.519-22.208 31.712l-0.064 0.34-1.126 17.152c-1.596 18.302-2.506 39.598-2.506 61.107s0.91 42.806 2.693 63.853l-0.187-2.746c5.069 48.486 40.294 87.91 86.938 97.28 55.091 15.583 103.255 38.229 146.664 67.405l-1.819-1.152c6.579 5.073 14.94 8.132 24.015 8.132 0.954 0 1.901-0.034 2.838-0.1l-0.126 0.007c10.408-3.665 18.299-12.097 21.143-22.604l0.053-0.232c-0.599-12.259-6.049-23.138-14.456-30.844l-0.033-0.030c-44.388-32.772-96.459-58.243-152.773-73.348l-3.234-0.738c-31.531-5.799-55.187-32.83-55.705-65.481l-0.001-0.055c-0.8-9.414-1.255-20.372-1.255-31.437s0.456-22.023 1.35-32.858l-0.094 1.421c0-9.216 1.126-18.278 1.126-27.392 0-8.038 3.328-12.544 12.288-17.152 69.338-35.032 150.157-59.001 235.588-67.167l2.748-0.212c17.869-2.304 36.813-2.304 51.2-3.43 4.915 0.256 9.779-0.102 14.541-1.178 0.921-0.004 2.009-0.006 3.098-0.006 79.981 0 157.133 12.111 229.723 34.598l-5.493-1.465c16.282 4.71 32.256 10.394 47.872 17.152 14.49 5.683 28.928 12.544 42.291 18.278 13.568 6.861 17.869 12.544 17.869 24.013v34.509c0.358 20.992-0.358 41.933-2.202 62.822 0 2.253-1.126 5.683-1.126 7.987-2.994 14.213-11.029 26.176-22.108 34.191l-0.164 0.113c-7.151 5.58-15.797 9.591-25.233 11.36l-0.367 0.057c-59.842 16.289-112.199 41.361-158.71 74.169l1.577-1.055c-18.944 12.544-24.525 28.57-14.49 44.544 3.55 6.281 9.498 10.855 16.569 12.51l0.174 0.034c10.342 2.048 20.992-0.87 28.928-7.987 46.029-30.464 96.256-53.606 149.094-68.608 22.886-5.53 43.264-18.79 57.907-37.683 9.318-12.186 16.128-26.163 20.070-41.114 2.048-7.475 3.584-15.104 4.506-22.835 1.894-31.642 1.587-63.386-0.922-95.027z" />
<glyph unicode="&#xe90a;" glyph-name="check" data-tags="check" d="M1005.568 744.55l-89.907 93.696c-10.984 11.919-26.672 19.36-44.098 19.36-0.301 0-0.601-0.002-0.901-0.007l0.045 0.001c-0.224 0.003-0.489 0.005-0.754 0.005-17.425 0-33.113-7.44-44.059-19.317l-0.038-0.042-433.459-453.018-194.253 203.469c-10.978 11.858-26.627 19.257-44.004 19.257-0.298 0-0.596-0.002-0.893-0.007l0.045 0.001c-0.282 0.005-0.615 0.008-0.948 0.008-17.378 0-33.027-7.399-43.969-19.219l-0.036-0.039-89.805-93.798c-11.471-11.76-18.547-27.854-18.547-45.601 0-0.457 0.005-0.912 0.014-1.366l-0.001 0.068c0-18.432 6.144-33.997 18.432-46.899l329.114-343.347c12.288-12.902 27.238-19.354 44.851-19.354 0.254-0.004 0.555-0.006 0.855-0.006 17.426 0 33.114 7.441 44.060 19.318l0.038 0.042 568.218 592.998c11.411 11.749 18.447 27.802 18.447 45.498 0 0.493-0.005 0.984-0.016 1.474l0.001-0.073c0 18.432-6.144 33.997-18.432 46.899z" />
<glyph unicode="&#xe90b;" glyph-name="wishlist" data-tags="wishlist" horiz-adv-x="1141" d="M528.86 953.493l4.733-4.141 354.939-354.939c-22.671-8.772-42.238-20.351-59.52-34.602l0.363 0.291-5.916-4.141-314.713 318.262-319.445-319.445v-541.282h315.304c26.959-24.719 56.298-48.047 87.216-69.239l2.702-1.749h-440.716c-17.474 0.048-31.974 12.716-34.872 29.366l-0.031 0.212v511.704l-59.157-59.157c-6.412-6.36-15.243-10.29-24.992-10.29-7.456 0-14.375 2.299-20.087 6.227l0.12-0.078-4.733 4.141c-6.504 6.436-10.531 15.364-10.531 25.233 0 7.606 2.392 14.653 6.465 20.43l-0.075-0.112 4.141 4.733 473.252 473.252c6.494 6.929 15.703 11.246 25.921 11.246 7.313 0 14.11-2.212 19.758-6.003l-0.128 0.081zM804.529-64l-13.606 5.324c-258.514 105.89-346.657 295.783-319.445 435.392 11.442 85.342 82.152 150.961 168.848 154.388l0.34 0.011c62.762-4.072 119.318-27.737 164.354-64.873l-0.49 0.392c43.504 35.618 98.589 58.602 158.861 62.659l0.861 0.046c88.455-2.006 160.798-68.43 172.049-154.092l0.096-0.898c27.804-136.060-59.157-324.769-317.671-432.434zM638.299 460.127c-51.647-4.55-92.466-45.37-96.988-96.612l-0.029-0.404c-21.296-109.44 52.058-259.106 262.655-350.207 211.189 92.284 283.36 241.359 261.472 349.615-5.146 52.438-48.090 93.336-100.973 95.237l-0.185 0.005c-47.153-4.020-89.226-23.057-122.077-52.245l0.215 0.187c-10.227-8.675-23.575-13.95-38.156-13.95s-27.929 5.275-38.242 14.021l0.086-0.071c-34.050 30.689-78.277 50.683-127.055 54.38l-0.723 0.044z" />
<glyph unicode="&#xe90c;" d="M1024 129.536c0-28.277-22.923-51.2-51.2-51.2v0h-921.6c-28.277 0-51.2 22.923-51.2 51.2v0 523.264c0 28.277 22.923 51.2 51.2 51.2v0h213.504l110.592 113.664h272.896l111.104-113.664h213.504c28.277 0 51.2-22.923 51.2-51.2v0z" />
<glyph unicode="&#xe90d;" d="M716.8 408.064c0-113.108-91.692-204.8-204.8-204.8s-204.8 91.692-204.8 204.8c0 113.108 91.692 204.8 204.8 204.8s204.8-91.692 204.8-204.8z" />
<glyph unicode="&#xe90e;" d="M665.6 408.064c0-84.831-68.769-153.6-153.6-153.6s-153.6 68.769-153.6 153.6c0 84.831 68.769 153.6 153.6 153.6s153.6-68.769 153.6-153.6z" />
<glyph unicode="&#xe90f;" glyph-name="arrow-single" data-tags="arrow-single-back" d="M921.6 448v-51.2h-563.2v-153.6l-204.8 179.2 204.8 179.2v-153.6z" />
<glyph unicode="&#xe910;" glyph-name="heart-o" data-tags="heart-o" d="M965.939 639.181c-25.498 130.867-120.064 216.013-241.254 216.013-80.794-3.867-154.096-33.059-212.884-79.74l0.763 0.585c-58.301 47.773-132.651 77.954-213.911 81.535l-0.77 0.027c-119.859-1.178-214.374-86.477-239.872-218.419-38.758-195.635 84.89-456.858 443.648-598.374 3.586-1.522 7.757-2.407 12.134-2.407s8.548 0.885 12.343 2.485l-0.209-0.078c356.352 145.254 478.771 404.275 440.013 598.374zM512.512 105.728c-315.136 129.536-424.243 353.741-391.475 521.626 19.354 99.533 89.702 165.478 176.794 165.478 75.194-5.654 142.371-36.059 194.332-82.992l-0.284 0.253c5.39-4.489 12.386-7.214 20.019-7.214s14.629 2.725 20.070 7.255l-0.051-0.041c51.472 45.769 118.223 75.373 191.732 80.331l0.985 0.053c91.904-3.021 167.475-72.653 176.998-163.123 33.946-166.656-75.162-390.963-389.12-521.626z" />
<glyph unicode="&#xe911;" glyph-name="heart-active" data-tags="heart-active" d="M297.882 857.6c82.031-3.608 156.381-33.788 215.327-82.074l-0.645 0.512c58.026 46.097 131.328 75.288 211.278 79.123l0.843 0.032c121.19 0 215.757-85.146 241.254-216.013 38.758-194.099-83.661-453.12-440.013-598.374-3.586-1.522-7.757-2.407-12.134-2.407s-8.548 0.885-12.343 2.485l0.209-0.078c-358.758 141.466-482.406 402.739-443.648 598.374 25.498 131.942 120.013 217.242 239.872 218.419z" />
<glyph unicode="&#xe912;" glyph-name="window" data-tags="window" d="M896 857.6h-768c-14.138 0-25.6-11.462-25.6-25.6v0-768c0-14.138 11.462-25.6 25.6-25.6v0h768c14.138 0 25.6 11.462 25.6 25.6v0 768c0 14.138-11.462 25.6-25.6 25.6v0zM870.4 89.6h-716.8v716.8h716.8v-716.8zM230.4 140.8h563.2c14.138 0 25.6 11.462 25.6 25.6v0 563.2c0 14.138-11.462 25.6-25.6 25.6v0h-563.2c-14.138 0-25.6-11.462-25.6-25.6v0-563.2c0-14.138 11.462-25.6 25.6-25.6v0zM256 422.4h230.4v-230.4h-230.4v230.4zM537.6 192v230.4h230.4v-230.4h-230.4zM768 473.6h-230.4v230.4h230.4v-230.4zM486.4 704v-230.4h-230.4v230.4h230.4z" />
<glyph unicode="&#xe913;" glyph-name="lamp" data-tags="lamp" d="M762.163 204.288l-95.744 211.251c-8.783 19.184-27.749 32.304-49.797 32.461h-36.577l-5.786 17.664c-6.468 19.662-23.184 34.226-43.667 37.488l-0.313 0.041v242.688h8.038c25.19 0 47.104 17.408 53.197 42.291l7.885 32.205h77.158c10.114 0.087 18.279 8.305 18.279 18.431 0 0.054 0 0.108-0.001 0.163v-0.008c0.001 0.061 0.001 0.133 0.001 0.205 0 10.126-8.166 18.345-18.271 18.431h-329.122c-10.114-0.086-18.28-8.305-18.28-18.431 0-0.072 0-0.144 0.001-0.216v0.011c0-10.24 8.192-18.586 18.278-18.586h77.158l7.885-32.205c6.144-24.883 28.006-42.291 53.248-42.291h7.987v-242.688c-20.224-3.072-37.376-17.306-44.032-37.53l-5.683-17.664h-36.557c-21.35 0-40.858-12.8-49.818-32.461l-95.744-211.251c-3.676-7.926-5.825-17.202-5.837-26.978v-0.004c0-35.533 28.365-64.41 63.283-64.41h103.066c8.455-42.495 45.281-74.135 89.561-74.496h0.039c50.432 0 91.443 41.779 91.443 93.082 0.001 0.061 0.001 0.133 0.001 0.205 0 10.126-8.166 18.345-18.271 18.431h-265.89c-14.792 0.145-26.727 12.169-26.727 26.981 0 0.054 0 0.109 0 0.163v-0.008c0 3.942 0.87 7.885 2.458 11.418l95.744 211.251c2.92 6.422 9.262 10.814 16.635 10.854h209.208c7.168 0 13.619-4.301 16.589-10.854l95.744-211.251c1.645-3.387 2.607-7.367 2.607-11.572 0-14.847-11.991-26.893-26.816-26.982h-46.447c-10.114-0.086-18.28-8.305-18.28-18.431 0-0.072 0-0.144 0.001-0.216v0.011c0-10.24 8.192-18.586 18.278-18.586h46.438c34.918 0 63.283 28.877 63.283 64.41 0 9.216-2.048 18.586-5.837 26.982zM467.968 797.184l-5.683 23.194h99.43l-5.632-23.142c-1.963-8.137-9.164-14.094-17.762-14.131h-52.638c-8.582 0.061-15.757 6.011-17.69 14.006l-0.026 0.125zM563.712 112.896c-7.576-21.745-27.828-37.102-51.691-37.273h-0.021c-23.859 0-44.186 15.565-51.712 37.274h103.424zM484.403 453.888c2.431 7.44 9.299 12.725 17.405 12.749h20.381c7.885 0 14.848-5.12 17.357-12.8l1.946-5.837h-58.982l1.894 5.888z" />
<glyph unicode="&#xe914;" glyph-name="bundle" data-tags="bundle" horiz-adv-x="1020" d="M987.591 160.142h-955.733c-0.681-0.052-1.475-0.081-2.276-0.081-17.595 0-31.858 14.263-31.858 31.858 0 0.029 0 0.057 0 0.086v-0.004 130.844c0 17.595 14.263 31.858 31.858 31.858v0h958.009c17.595 0 31.858-14.263 31.858-31.858v-130.844c0-17.595-14.263-31.858-31.858-31.858v0zM63.716 223.858h892.018v67.129h-892.018zM0 192h64.284v-256h-64.284v256zM91.022 192h64.284v-256h-64.284v256zM864.711 192h64.284v-256h-64.284v256zM955.733 192h64.284v-256h-64.284v256zM703.147 512.853h-386.844c-0.681-0.052-1.475-0.081-2.276-0.081-17.595 0-31.858 14.263-31.858 31.858 0 0.029 0 0.057 0 0.086v-0.004 193.422c1.56 36.596 31.468 65.71 68.239 65.991h318.605c36.799-0.281 66.707-29.395 68.262-65.85l0.005-0.141v-193.422c0-0.024 0-0.053 0-0.081 0-17.595-14.263-31.858-31.858-31.858-0.801 0-1.595 0.030-2.381 0.088l0.105-0.006zM348.729 576.569h322.56v161.564h-320.853zM477.867 960h64.284v-193.422h-64.284v193.422z" />
<glyph unicode="&#xe915;" glyph-name="linkin" data-tags="linkin" d="M950.835 960h-877.926c-40.335-0.319-72.91-33.090-72.91-73.47 0-0.127 0-0.253 0.001-0.38v0.020-876.339c-0.001-0.107-0.001-0.234-0.001-0.361 0-40.38 32.575-73.151 72.879-73.47h877.956c40.47 0.29 73.165 33.164 73.165 73.675 0 0.055 0 0.109 0 0.164v-0.008 876.339c0 0.046 0 0.101 0 0.155 0 40.511-32.695 73.385-73.137 73.675h-0.028zM309.504 82.278h-151.808v488.602h152.013v-488.704l-0.205 0.102zM233.626 637.696c-48.608 0-88.013 39.405-88.013 88.013s39.405 88.013 88.013 88.013v0c48.608 0 88.013-39.405 88.013-88.013s-39.405-88.013-88.013-88.013v0zM878.387 82.278h-151.757v237.722c0 56.678-1.126 129.587-78.848 129.587-79.104 0-91.187-61.696-91.187-125.491v-241.818h-151.808v488.602h145.613v-66.56h2.048c28.277 47.573 79.408 78.957 137.869 78.957 2.075 0 4.141-0.040 6.197-0.118l-0.296 0.009c153.6 0 182.17-101.274 182.17-232.909v-267.981z" />
<glyph unicode="&#xe916;" glyph-name="arrow-down" data-tags="arrow-down" d="M511.147 192c21.022 0.184 40.014 8.721 53.85 22.448l-0.005-0.005 353.28 370.176c12.599 12.458 20.401 29.745 20.401 48.853 0 7.359-1.157 14.448-3.299 21.094l0.135-0.486c-8.228 24.688-28.771 43.162-54.15 48.306l-0.463 0.078c-4.594 1.005-9.872 1.581-15.284 1.581-21.71 0-41.256-9.265-54.899-24.058l-0.047-0.051-299.52-314.027-299.349 314.027c-13.662 14.060-32.751 22.783-53.876 22.783-18.945 0-36.252-7.016-49.463-18.591l0.086 0.074c-14.257-12.353-23.222-30.487-23.222-50.714 0-0.441 0.004-0.881 0.013-1.32l-0.001 0.066c0-0.053 0-0.116 0-0.179 0-18.399 7.216-35.113 18.971-47.466l-0.027 0.029 353.109-370.176c14.080-14.080 33.451-22.187 53.76-22.443z" />
<glyph unicode="&#xe917;" glyph-name="youtube" data-tags="youtube" d="M991.949 694.374c-11.896 44.094-45.69 78.21-88.7 90.356l-0.9 0.217c-79.002 21.453-395.827 21.453-395.827 21.453s-316.826 0-395.776-21.504c-43.908-12.33-77.714-46.407-89.444-89.576l-0.207-0.895c-13.465-74.243-21.164-159.691-21.164-246.938s7.7-172.696 22.456-255.704l-1.292 8.767c11.776-43.827 45.926-77.926 89.6-89.293 79.002-21.504 395.776-21.504 395.776-21.504s316.826 0 395.776 21.504c43.822 11.784 77.669 45.529 89.394 88.411l0.206 0.882c13.468 74.25 21.17 159.707 21.17 246.963s-7.701 172.713-22.461 255.728l1.292-8.765zM402.944 295.731v303.104l264.704-151.552-264.704-151.603z" />
<glyph unicode="&#xe918;" glyph-name="instruction" data-tags="instruction" horiz-adv-x="1092" d="M545.502-64c-21.013 0.38-37.901 17.504-37.901 38.572 0 0.002 0 0.004 0 0.006v0c-0.384 53.533-43.87 96.783-97.457 96.783-0.001 0-0.002 0-0.003 0h-372.24c-21.013 0.38-37.901 17.504-37.901 38.572 0 0.002 0 0.004 0 0.006v0 744.481c0 20.932 16.969 37.901 37.901 37.901v0h372.241c95.535-0.383 172.878-77.726 173.261-173.224v-601.036c27.242 18.98 61.012 30.359 97.435 30.456h333.687v668.003h-96.783c-21.119 0-38.239 17.12-38.239 38.239s17.12 38.239 38.239 38.239v0h135.36c0.002 0 0.004 0 0.006 0 21.068 0 38.191-16.888 38.571-37.865l0.001-0.036v-745.158c0-21.306-17.272-38.578-38.578-38.578v0h-372.241c-0.001 0-0.002 0-0.002 0-53.587 0-97.073-43.249-97.457-96.746v-0.037c0-0.002 0-0.004 0-0.006 0-21.068-16.888-38.191-37.865-38.571l-0.036-0.001zM75.802 148.516h334.34c0.162 0.001 0.354 0.001 0.545 0.001 36.18 0 69.761-11.133 97.501-30.161l-0.588 0.381v600.323c0 53.825-43.634 97.459-97.459 97.459v0h-334.34zM545.502 681.158c-20.932 0-37.901 16.969-37.901 37.901v0c0.383 95.535 77.726 172.878 173.224 173.261h33.877c21.119 0 38.239-17.12 38.239-38.239s-17.12-38.239-38.239-38.239v0h-33.84c-0.001 0-0.002 0-0.002 0-53.587 0-97.073-43.249-97.457-96.746v-0.037c0-20.932-16.969-37.901-37.901-37.901v0zM917.742 240.56h-236.88c-18.999 2.605-33.479 18.731-33.479 38.239s14.48 35.634 33.278 38.217l0.201 0.023h236.88c1.531 0.215 3.301 0.338 5.099 0.338 21.306 0 38.578-17.272 38.578-38.578s-17.272-38.578-38.578-38.578c-1.798 0-3.567 0.123-5.299 0.361l0.201-0.023zM410.141 240.56h-236.88c-18.999 2.605-33.479 18.731-33.479 38.239s14.48 35.634 33.278 38.217l0.201 0.023h236.88c18.999-2.605 33.479-18.731 33.479-38.239s-14.48-35.634-33.278-38.217l-0.201-0.023zM917.742 375.921h-236.88c-1.531-0.215-3.301-0.338-5.099-0.338-21.306 0-38.578 17.272-38.578 38.578s17.272 38.578 38.578 38.578c1.798 0 3.567-0.123 5.299-0.361l-0.201 0.023h236.88c1.531 0.215 3.301 0.338 5.099 0.338 21.306 0 38.578-17.272 38.578-38.578s-17.272-38.578-38.578-38.578c-1.798 0-3.567 0.123-5.299 0.361l0.201-0.023zM410.141 375.921h-236.88c-18.999 2.605-33.479 18.731-33.479 38.239s14.48 35.634 33.278 38.217l0.201 0.023h236.88c18.999-2.605 33.479-18.731 33.479-38.239s-14.48-35.634-33.278-38.217l-0.201-0.023zM917.742 511.281c-0.697-0.045-1.51-0.070-2.33-0.070-6.844 0-13.272 1.782-18.845 4.908l0.194-0.1-80.539 55.498-80.539-55.498c-5.923-3.891-13.184-6.207-20.985-6.207-21.109 0-38.257 16.953-38.573 37.987v374.301c0.38 21.013 17.504 37.901 38.572 37.901 0.002 0 0.004 0 0.006 0h203.040c0.002 0 0.004 0 0.006 0 21.068 0 38.191-16.888 38.571-37.865l0.001-0.036v-372.241c-0.38-21.013-17.504-37.901-38.572-37.901-0.002 0-0.004 0-0.006 0v0zM816.222 655.44c0.052 0 0.113 0 0.175 0 7.726 0 14.922-2.271 20.956-6.183l-0.15 0.091 41.962-27.749v262.599h-125.885v-262.599l41.962 29.779c5.099 2.657 11.134 4.215 17.534 4.215 1.213 0 2.414-0.056 3.599-0.166l-0.152 0.011zM410.141 511.958h-236.88c-21.119 0-38.239 17.12-38.239 38.239s17.12 38.239 38.239 38.239v0h236.88c21.119 0 38.239-17.12 38.239-38.239s-17.12-38.239-38.239-38.239v0zM410.141 647.318h-236.88c-21.119 0-38.239 17.12-38.239 38.239s17.12 38.239 38.239 38.239v0h236.88c21.119 0 38.239-17.12 38.239-38.239s-17.12-38.239-38.239-38.239v0z" />
<glyph unicode="&#xe919;" glyph-name="chair" data-tags="chair-1" horiz-adv-x="1030" d="M896.795 540.224c-17.563 0-31.801 14.238-31.801 31.801v0 190.807c0 70.253-56.952 127.205-127.205 127.205v0h-445.217c-70.253 0-127.205-56.952-127.205-127.205v0-190.807c0-17.563-14.238-31.801-31.801-31.801s-31.801 14.238-31.801 31.801v0 190.807c0 105.38 85.427 190.807 190.807 190.807v0h445.217c105.38 0 190.807-85.427 190.807-190.807v0-190.807c0-17.563-14.238-31.801-31.801-31.801v0zM896.795 533.863v0c-21.076 0-38.161 17.085-38.161 38.161v0 190.807c0 66.741-54.104 120.845-120.845 120.845v0h-445.217c-0.757 0.017-1.65 0.027-2.544 0.027-66.741 0-120.845-54.104-120.845-120.845 0-0.009 0-0.019 0-0.028v0.001-190.807c0-21.076-17.085-38.161-38.161-38.161s-38.161 17.085-38.161 38.161v190.807c0.36 108.747 88.42 196.807 197.133 197.168h445.252c108.747-0.36 196.807-88.42 197.168-197.133v-190.842c0-0.025 0-0.055 0-0.085 0-20.181-15.665-36.703-35.499-38.070l-0.119-0.007zM290.027 896.398h445.217c73.492-0.361 132.929-60.021 132.929-133.564 0 0 0-0.001 0-0.001v0-190.807c0-14.051 11.39-25.441 25.441-25.441v0c14.051 0 25.441 11.39 25.441 25.441v0 190.807c-0.36 101.722-82.725 184.087-184.413 184.447h-445.251c-101.449-0.719-183.454-82.947-183.811-184.413v-190.841c0-14.051 11.39-25.441 25.441-25.441s25.441 11.39 25.441 25.441v0 190.807c0 73.766 59.799 133.565 133.565 133.565v0zM864.994 63.205h-699.627c-87.817 0-159.006 71.19-159.006 159.006v0 222.609c0 87.817 71.19 159.006 159.006 159.006s159.006-71.19 159.006-159.006v0-79.503c0-8.782 7.119-15.901 15.901-15.901v0h349.814c8.782 0 15.901 7.119 15.901 15.901v0 0 79.503c0 87.817 71.19 159.006 159.006 159.006s159.006-71.19 159.006-159.006v0-222.609c0-87.817-71.19-159.006-159.006-159.006v0zM165.366 540.224c-52.69 0-95.404-42.714-95.404-95.404v0-222.609c0-52.69 42.714-95.404 95.404-95.404v0h699.627c52.69 0 95.404 42.714 95.404 95.404v0 222.609c0 52.69-42.714 95.404-95.404 95.404s-95.404-42.714-95.404-95.404v0-79.503c0-43.908-35.595-79.503-79.503-79.503v0h-349.814c-43.908 0-79.503 35.595-79.503 79.503v0 79.503c0 52.69-42.714 95.404-95.404 95.404v0zM864.994 56.845h-699.627c-91.184 0.36-165.007 74.182-165.366 165.332v222.643c0 91.329 74.037 165.366 165.366 165.366s165.366-74.037 165.366-165.366v0-79.503c0-5.269 4.271-9.54 9.54-9.54v0h349.814c5.269 0 9.54 4.271 9.54 9.54v0 79.503c0 91.329 74.037 165.366 165.366 165.366s165.366-74.037 165.366-165.366v-222.609c0-91.329-74.037-165.366-165.366-165.366v0zM165.366 597.466c-84.304 0-152.646-68.342-152.646-152.646v0-222.609c0.36-84.159 68.487-152.286 152.612-152.646h699.661c84.304 0 152.646 68.342 152.646 152.646v0 222.609c0 84.304-68.342 152.646-152.646 152.646s-152.646-68.342-152.646-152.646v0-79.503c0-12.294-9.967-22.261-22.261-22.261h-349.814c-12.294 0-22.261 9.967-22.261 22.261v0 79.503c0 84.304-68.342 152.646-152.646 152.646v0zM864.994 120.447h-699.627c-56.203 0-101.764 45.561-101.764 101.764v0 222.609c0 56.203 45.561 101.764 101.764 101.764s101.764-45.561 101.764-101.764v-79.503c0-40.396 32.747-73.143 73.143-73.143h349.814c40.396 0 73.143 32.747 73.143 73.143v0 79.503c0 56.203 45.561 101.764 101.764 101.764s101.764-45.561 101.764-101.764v0-222.609c0-56.203-45.561-101.764-101.764-101.764v0zM165.366 533.863c-49.177 0-89.043-39.866-89.043-89.043v0-222.609c0-49.177 39.866-89.043 89.043-89.043v0h699.627c49.177 0 89.043 39.866 89.043 89.043v0 222.609c0 49.177-39.866 89.043-89.043 89.043s-89.043-39.866-89.043-89.043v0-79.503c0-47.421-38.442-85.863-85.863-85.863h-349.814c-47.421 0-85.863 38.442-85.863 85.863v0 79.503c0 49.177-39.866 89.043-89.043 89.043v0zM292.571-64c-52.69 0-95.404 42.714-95.404 95.404s42.714 95.404 95.404 95.404c52.69 0 95.404-42.714 95.404-95.404v0c0-52.69-42.714-95.404-95.404-95.404v0zM292.571 63.205c-17.563 0-31.801-14.238-31.801-31.801s14.238-31.801 31.801-31.801c17.563 0 31.801 14.238 31.801 31.801v0c0 17.563-14.238 31.801-31.801 31.801v0zM737.789-64c-52.69 0-95.404 42.714-95.404 95.404s42.714 95.404 95.404 95.404c52.69 0 95.404-42.714 95.404-95.404v0c0-52.69-42.714-95.404-95.404-95.404v0zM737.789 63.205c-17.563 0-31.801-14.238-31.801-31.801s14.238-31.801 31.801-31.801c17.563 0 31.801 14.238 31.801 31.801v0c0 17.563-14.238 31.801-31.801 31.801v0z" />
<glyph unicode="&#xe91a;" glyph-name="trash" data-tags="trash" horiz-adv-x="1025" d="M770.628-64h-516.205c-69.386 0-125.634 56.248-125.634 125.634v0 515.68c0 22.5 18.24 40.739 40.739 40.739s40.739-18.24 40.739-40.739v0-515.68c0-25.838 20.946-46.784 46.784-46.784h516.205c0.001 0 0.002 0 0.003 0 25.653 0 46.484 20.647 46.781 46.231v516.233c0 21.774 17.651 39.425 39.425 39.425s39.425-17.651 39.425-39.425v0-516.205c-0.585-69.23-56.843-125.126-126.156-125.126-0.741 0-1.48 0.006-2.218 0.019l0.111-0.002zM633.955 710.308h-594.53c-21.774 0-39.425 17.651-39.425 39.425s17.651 39.425 39.425 39.425v0h304.361c0 92.902 75.312 168.214 168.214 168.214s168.214-75.312 168.214-168.214v0h305.413c21.774 0 39.425-17.651 39.425-39.425s-17.651-39.425-39.425-39.425v0h-351.671zM420.534 789.158h178.727c0 49.354-40.009 89.363-89.363 89.363s-89.363-40.009-89.363-89.363v0z" />
<glyph unicode="&#xe91b;" glyph-name="2d" data-tags="2d" horiz-adv-x="1023" d="M973.749-48.366h-923.498c-0.167-0.003-0.365-0.005-0.563-0.005-18.616 0-33.743 14.935-34.054 33.476v0.029s0 0 0 0v924.615c-0.003 0.167-0.005 0.365-0.005 0.563 0 18.616 14.935 33.743 33.476 34.054h924.644c0.167 0.003 0.365 0.005 0.563 0.005 18.616 0 33.743-14.935 34.054-33.476v-0.029s0 0 0 0v-924.615c0.003-0.167 0.005-0.365 0.005-0.563 0-18.616-14.935-33.743-33.476-34.054h-0.029zM46.342-17.658h931.315v930.757h-930.757zM439.974 241.413h-279.171v50.251l105.527 106.643c21.594 21.375 42.035 43.763 61.311 67.147l1.223 1.529c8.713 10.954 16.206 23.465 21.933 36.909l0.401 1.058c4.584 11.246 7.249 24.294 7.258 37.963v0.004c0.095 1.224 0.15 2.65 0.15 4.089 0 15.688-6.47 29.865-16.888 40.008l-0.012 0.012c-11.298 10.112-26.298 16.293-42.742 16.293-1.267 0-2.525-0.037-3.773-0.109l0.173 0.008c-16.509-0.058-32.236-3.334-46.61-9.233l0.826 0.3c-19.629-8.768-36.546-19.424-51.711-32.105l0.344 0.28-35.734 43.551c18.279 17.078 39.492 31.32 62.748 41.842l1.461 0.592c20.311 7.794 43.807 12.308 68.358 12.308 1.094 0 2.185-0.009 3.274-0.027l-0.164 0.002c2.087 0.114 4.529 0.179 6.987 0.179 32.587 0 62.502-11.441 85.947-30.526l-0.249 0.196c21.326-18.723 34.716-46.042 34.716-76.487 0-1.573-0.036-3.137-0.106-4.693l0.008 0.221c0.024-0.983 0.038-2.14 0.038-3.301 0-18.921-3.705-36.977-10.43-53.481l0.342 0.948c-8.388-19.839-18.692-36.952-31.042-52.356l0.333 0.43c-21.811-26.112-44.45-49.636-68.629-71.488l-0.605-0.538-71.468-67.559v-2.792h195.978zM855.381 454.142c0.337-4.412 0.528-9.557 0.528-14.745 0-54.885-21.461-104.758-56.45-141.684l0.088 0.093c-39.902-34.93-92.499-56.235-150.072-56.235-4.757 0-9.481 0.145-14.166 0.432l0.643-0.031h-116.694v412.615h127.86c3.004 0.152 6.522 0.239 10.061 0.239 55.437 0 105.895-21.318 143.624-56.202l-0.141 0.129c33.961-35.595 54.859-83.912 54.859-137.11 0-2.638-0.051-5.264-0.153-7.877l0.012 0.376zM783.913 454.142q0 148.519-139.027 148.519h-55.834v-304.855h48.017c4.982-0.662 10.743-1.040 16.593-1.040 73.391 0 132.885 59.495 132.885 132.885 0 7.067-0.552 14.005-1.614 20.774l0.097-0.75z" />
<glyph unicode="&#xe91c;" glyph-name="3d" data-tags="3d" horiz-adv-x="1134" d="M570.729-64h-5.692l-543.822 117.457c-12.505 2.722-21.732 13.697-21.732 26.827 0 0.028 0 0.056 0 0.084v-0.004 716.645c-0.004 0.177-0.006 0.386-0.006 0.595 0 14.42 11.129 26.24 25.266 27.34l0.094 0.006h5.692l547.444-117.975c12.751-2.515 22.237-13.601 22.25-26.905v-716.128c0-0.007 0-0.016 0-0.025 0-8.741-4.013-16.544-10.298-21.668l-0.051-0.040c-4.701-3.897-10.796-6.262-17.443-6.262-0.599 0-1.193 0.019-1.783 0.057l0.080-0.004zM53.296 103.131l487.939-103.487v658.175l-484.835 103.487zM570.729-64c-0.001 0-0.003 0-0.005 0-15.535 0-28.163 12.448-28.454 27.914v716.154c-0.001 0.095-0.002 0.207-0.002 0.32 0 12.757 8.711 23.48 20.509 26.545l0.191 0.042 536.578 136.602c2.153 0.607 4.625 0.956 7.178 0.956 6.279 0 12.066-2.111 16.689-5.661l-0.065 0.048c6.341-5.258 10.35-13.138 10.35-21.954 0-0.104-0.001-0.208-0.002-0.311v0.016-716.645c0.001-0.062 0.001-0.135 0.001-0.209 0-12.657-8.74-23.273-20.514-26.143l-0.184-0.038-535.543-135.567zM600.222 660.406v-661.797l479.143 120.562v660.762zM572.281 652.645h-4.139l-543.305 116.94c-12.505 2.722-21.732 13.697-21.732 26.827 0 0.028 0 0.056 0 0.084v-0.004c-0.018 0.369-0.028 0.802-0.028 1.237 0 12.667 8.754 23.29 20.542 26.149l0.184 0.038 532.439 135.050c1.867 0.406 4.011 0.638 6.209 0.638s4.343-0.232 6.409-0.674l-0.2 0.036 542.787-115.388c12.505-2.722 21.732-13.697 21.732-26.827 0-0.028 0-0.056 0-0.084v0.004c-0.749-12.379-9.762-22.451-21.561-24.808l-0.172-0.029-532.439-138.672zM150.056 800.631l421.708-91.068 413.946 103.487-422.225 91.068zM290.797 148.665c-54.681 12.343-99.525 47.019-125.242 93.711l-0.494 0.979 35.185 51.743c19.383-31.837 49.567-55.462 85.361-65.967l1.050-0.264c38.807-8.279 60.022 8.796 60.54 39.842s-19.662 51.743-63.644 62.609c-13.453 2.587-35.185 6.727-39.842 6.727v80.202c5.692 0 27.424-6.727 39.842-9.314 35.185-7.244 58.47 0 58.47 31.563-1.572 32.641-26.365 59.036-58.138 63.092l-0.332 0.035c-5.366 1.223-11.528 1.924-17.854 1.924-24.719 0-46.939-10.7-62.281-27.72l-0.066-0.075-32.081 63.644c21.213 27.217 53.999 44.555 90.835 44.555 10.949 0 21.541-1.532 31.572-4.393l-0.81 0.198c68.237-9.972 120.047-68.094 120.047-138.317 0-0.307-0.001-0.613-0.003-0.92v0.047c0.219-2.129 0.344-4.601 0.344-7.102 0-37.967-28.797-69.208-65.741-73.073l-0.318-0.027h-5.174c43.941-19.457 74.042-62.681 74.042-112.935 0-1.227-0.018-2.449-0.054-3.667l0.004 0.179c0.346-3.012 0.543-6.503 0.543-10.040 0-51.439-41.699-93.138-93.138-93.138-11.719 0-22.932 2.164-33.262 6.115l0.638-0.215zM823.236 596.762l-115.905-29.494v-424.813l115.905 28.459c92.621 23.284 155.23 123.149 155.23 251.472s-62.092 197.659-155.23 174.375zM823.236 251.634l-51.743-13.453v264.926l51.743 13.453c60.54 15.523 92.103-34.151 92.103-109.178 0.513-4.672 0.805-10.090 0.805-15.576 0-62.643-38.122-116.381-92.433-139.282l-0.993-0.372z" />
<glyph unicode="&#xe91d;" glyph-name="camera-o" data-tags="camera-o" horiz-adv-x="1331" d="M112.446-64c-62.215 0.52-112.45 51.076-112.45 113.364 0 0.325 0.001 0.65 0.004 0.975v-0.050 628.594c0 0.001 0 0.002 0 0.004 0 62.287 50.233 112.842 112.397 113.364h230.472l118.898 147.471c9.322 11.778 23.594 19.286 39.621 19.355h327.213c16.008-0.212 30.23-7.679 39.555-19.256l0.077-0.099 119.82-148.392h230.423c62.215-0.52 112.45-51.076 112.45-113.364 0-0.325-0.001-0.65-0.004-0.975v0.050-627.672c0-0.001 0-0.002 0-0.004 0-62.287-50.233-112.842-112.397-113.364h-0.049zM112.446 689.944c-5.699-0.491-10.139-5.238-10.139-11.022 0-0.014 0-0.027 0-0.041v0.002-629.516c-0.026-0.287-0.041-0.62-0.041-0.957 0-5.799 4.462-10.555 10.14-11.023l0.040-0.003h1106.031c5.699 0.491 10.139 5.238 10.139 11.022 0 0.014 0 0.027 0 0.041v-0.002 630.437c0 0.011 0 0.025 0 0.038 0 5.784-4.44 10.531-10.097 11.019l-0.041 0.003h-254.387c-16.008 0.212-30.23 7.679-39.555 19.256l-0.077 0.099-119.82 148.392h-276.508l-121.663-148.392c-9.322-11.778-23.594-19.286-39.621-19.355h-0.012zM665.462 136.929c-134.23 4.105-241.481 113.901-241.481 248.748 0 137.44 111.417 248.857 248.857 248.857 137.077 0 248.269-110.83 248.855-247.77v-0.056c0.001-0.282 0.002-0.615 0.002-0.949 0-139.476-113.068-252.544-252.544-252.544-1.297 0-2.592 0.010-3.884 0.029l0.195-0.002zM665.462 528.648c-77.671-4.070-139.109-68.040-139.109-146.36 0-80.937 65.612-146.549 146.549-146.549s146.549 65.612 146.549 146.549c0 1.554-0.024 3.103-0.072 4.645l0.006-0.225c-4.495 79.348-69.937 141.992-150.009 141.992-1.376 0-2.748-0.018-4.115-0.055l0.202 0.004z" />
<glyph unicode="&#xe91e;" glyph-name="share-o" data-tags="share-o" d="M685.349 162.011c-0.133-0.001-0.29-0.002-0.447-0.002-7.018 0-13.657 1.62-19.565 4.507l0.264-0.116-345.966 171.886c-14.696 7.33-24.614 22.256-24.614 39.497 0 24.299 19.698 43.997 43.997 43.997 7.057 0 13.726-1.662 19.637-4.615l-0.255 0.115 346.697-171.886c14.777-7.271 24.766-22.22 24.766-39.502 0-24.237-19.648-43.886-43.886-43.886-0.221 0-0.442 0.002-0.662 0.005h0.033zM338.651 474.331c-24.189 0.064-43.774 19.688-43.774 43.886 0 17.278 9.985 32.224 24.499 39.383l0.257 0.115 345.966 171.154c5.657 2.838 12.326 4.5 19.383 4.5 24.299 0 43.997-19.698 43.997-43.997 0-17.242-9.918-32.167-24.359-39.382l-0.255-0.115-345.966-171.154c-5.591-2.771-12.175-4.393-19.138-4.393-0.215 0-0.429 0.002-0.643 0.005h0.032zM199.68 248.32c-109.965 0.416-198.949 89.656-198.949 199.679 0 110.28 89.4 199.68 199.68 199.68s199.679-89.399 199.68-199.679v0c-0.416-110.369-89.983-199.68-200.41-199.68 0 0-0.001 0-0.001 0v0zM199.68 560.64c-61.489-0.416-111.175-50.359-111.175-111.906 0-61.805 50.103-111.909 111.909-111.909 61.547 0 111.49 49.686 111.906 111.135v0.040c0 0.001 0 0.002 0 0.002 0 61.805-50.103 111.909-111.909 111.909-0.257 0-0.514-0.001-0.771-0.003h0.039zM824.32 559.909c-110.28 0.001-199.679 89.4-199.679 199.68s89.4 199.68 199.68 199.68c110.023 0 199.263-88.983 199.679-198.909v-0.040c0 0 0-0.001 0-0.001 0-110.427-89.311-199.994-199.64-200.41h-0.040zM824.32 872.229c-61.805 0-111.909-50.103-111.909-111.909s50.103-111.909 111.909-111.909c61.805 0 111.909 50.103 111.909 111.909v0c-0.412 61.639-50.27 111.497-111.869 111.908h-0.039zM824.32-64c-110.28 0-199.68 89.4-199.68 199.68s89.4 199.68 199.68 199.68c110.28 0 199.68-89.4 199.68-199.68v0c-0.414-110.113-89.567-199.266-199.64-199.68h-0.040zM824.32 248.32c-61.805 0-111.909-50.103-111.909-111.909s50.103-111.909 111.909-111.909c61.805 0 111.909 50.103 111.909 111.909v0c-0.412 61.639-50.27 111.497-111.869 111.908h-0.039z" />
<glyph unicode="&#xe91f;" glyph-name="search" data-tags="search" d="M983.235-64c-1.008-0.090-2.18-0.141-3.364-0.141-10.439 0-19.947 3.983-27.089 10.512l0.031-0.028-239.116 243.375c-74.74-62.32-171.794-100.154-277.686-100.154-240.262 0-435.033 194.771-435.033 435.033s194.771 435.033 435.033 435.033c240.262 0 435.033-194.771 435.033-435.033 0-105.891-37.833-202.946-100.72-278.384l0.566 0.698 243.375-243.375c7.243-7.354 11.715-17.454 11.715-28.599 0-22.355-17.994-40.507-40.288-40.763h-0.024zM435.641 879.078c-195.231-0.89-353.152-159.361-353.152-354.715 0-195.906 158.813-354.719 354.719-354.719 96.504 0 184.007 38.537 247.959 101.062l-0.067-0.065c65.947 64.468 106.839 154.326 106.839 253.735 0 195.906-158.813 354.719-354.719 354.719-1.197 0-2.393-0.006-3.587-0.018l0.182 0.001z" />
<glyph unicode="&#xe920;" d="M510.25 123.844c-284.293 0-507.528 97.227-509.861 222.457-0.047 0.582-0.074 1.26-0.074 1.945s0.027 1.362 0.079 2.033l-0.006-0.089v333.296c-0.068 0.699-0.106 1.512-0.106 2.333s0.039 1.634 0.114 2.436l-0.008-0.102c0 22.168 24.89 68.059 341.463 84.005 0.279 0.010 0.607 0.016 0.936 0.016 7.182 0 13.704-2.821 18.52-7.416l-0.011 0.010c5.024-4.811 8.151-11.567 8.167-19.054v-99.564c89.449-3.889 201.455-3.5 290.127 0v99.561c0.016 7.49 3.143 14.246 8.158 19.047l0.010 0.009c4.808 4.359 11.22 7.026 18.254 7.026 0.419 0 0.836-0.009 1.251-0.028l-0.059 0.002c260.57-13.612 317.739-47.058 330.185-70.782 4.107-4.638 6.614-10.774 6.614-17.496 0-0.139-0.001-0.277-0.003-0.415v0.021l-2.722-334.074c0.222-1.286 0.348-2.767 0.348-4.278s-0.127-2.992-0.37-4.434l0.022 0.156c-9.334-122.118-230.624-216.623-511.028-216.623zM52.503 351.356c0.047-0.582 0.074-1.26 0.074-1.945s-0.027-1.362-0.079-2.033l0.006 0.089c0-80.893 187.844-170.731 457.358-170.731s457.747 89.838 457.747 169.565c-0.228 1.286-0.359 2.767-0.359 4.278s0.131 2.992 0.381 4.431l-0.022-0.153 2.333 281.182c-103.45-38.891-341.852-46.28-460.081-46.28-42.78 0-101.506 0-164.12 3.5-1.52-0.306-3.268-0.481-5.056-0.481s-3.536 0.175-5.226 0.509l0.17-0.028c-101.58 1.978-198.76 17.471-290.876 44.749l7.75-1.969zM68.837 683.485c73.688-19.58 158.848-32.053 246.502-34.576l1.623-0.037v69.226c-89.141-2.262-174.328-14.752-255.812-36.345l7.687 1.732zM712.094 718.098v-68.837c86.594 2.726 169.044 15.047 248.003 35.947l-7.657-1.723c-71.355 19.532-153.804 32.002-238.741 34.574l-1.605 0.039z" />
<glyph unicode="&#xe921;" d="M702.371 279.408c-48.732 1.934-87.505 41.908-87.505 90.938 0 50.261 40.744 91.005 91.005 91.005 50.237 0 90.967-40.706 91.005-90.934v-0.004c-1.083-50.497-42.274-91.018-92.929-91.018-0.554 0-1.107 0.005-1.659 0.015l0.083-0.001zM702.371 408.526c-20.098-1.662-35.78-18.383-35.78-38.766 0-21.479 17.412-38.891 38.891-38.891 21.435 0 38.82 17.341 38.891 38.76v0.007c0 0.037 0 0.081 0 0.125 0 21.479-17.412 38.891-38.891 38.891-1.095 0-2.18-0.045-3.252-0.134l0.14 0.009z" />
<glyph unicode="&#xe922;" d="M293.238 279.408c-0.127-0.001-0.278-0.001-0.428-0.001-26.41 0-50.32 10.701-67.632 28.003v0c-16.291 16.054-26.398 38.344-26.446 62.994v0.009c-0.124 0.961-0.194 2.073-0.194 3.201 0 14.606 11.84 26.446 26.446 26.446s26.446-11.84 26.446-26.446c0-1.128-0.071-2.24-0.208-3.331l0.013 0.13c0.103-10.053 4.249-19.118 10.885-25.664l0.004-0.004c7.85-7.698 18.615-12.45 30.489-12.45 0.219 0 0.438 0.002 0.657 0.005h-0.033c21.479 0 38.891 17.412 38.891 38.891s-17.412 38.891-38.891 38.891v0c-13.163 1.651-23.245 12.774-23.245 26.251s10.082 24.6 23.115 26.238l0.13 0.013c1.778 0.124 3.854 0.194 5.946 0.194 50.261 0 91.005-40.744 91.005-91.005s-40.744-91.005-91.005-91.005c-2.092 0-4.168 0.071-6.224 0.21l0.278-0.015z" />
<glyph unicode="&#xe923;" d="M294.016 407.359v0c-13.163 1.651-23.245 12.774-23.245 26.251s10.082 24.6 23.115 26.238l0.13 0.013c11.619 0.080 22.154 4.656 29.965 12.074l-0.019-0.018c7.146 6.595 11.62 15.993 11.667 26.437v0.009c-0.124 0.961-0.194 2.073-0.194 3.201 0 14.606 11.84 26.446 26.446 26.446s26.446-11.84 26.446-26.446c0-1.128-0.071-2.24-0.208-3.331l0.013 0.13c-0.124-25.618-10.999-48.672-28.34-64.901l-0.050-0.046c-17.15-16.095-40.276-26-65.714-26.057h-0.011z" />
<glyph unicode="&#xe924;" d="M497.027 279.408c-48.732 1.934-87.505 41.908-87.505 90.938 0 50.261 40.744 91.005 91.005 91.005 50.237 0 90.967-40.706 91.005-90.934v-0.004c-1.083-50.497-42.274-91.018-92.929-91.018-0.554 0-1.107 0.005-1.659 0.015l0.083-0.001zM497.027 408.526c-20.098-1.662-35.78-18.383-35.78-38.766 0-21.479 17.412-38.891 38.891-38.891 21.435 0 38.82 17.341 38.891 38.76v0.007c0 0.037 0 0.081 0 0.125 0 21.479-17.412 38.891-38.891 38.891-1.095 0-2.18-0.045-3.252-0.134l0.14 0.009z" />
<glyph unicode="&#xe925;" d="M436.357 373.913c-14.27 0.43-25.674 12.1-25.674 26.435 0 4.56 1.154 8.851 3.186 12.596l-0.069-0.139 60.67 99.561c4.886 5.902 12.215 9.635 20.415 9.635 14.606 0 26.446-11.84 26.446-26.446 0-3.763-0.786-7.342-2.202-10.583l0.066 0.17-60.281-99.95c-4.844-6.865-12.742-11.293-21.674-11.293-0.31 0-0.619 0.005-0.927 0.016l0.045-0.001zM361.297 473.474h-135.73c-0.961-0.124-2.073-0.194-3.201-0.194-14.606 0-26.446 11.84-26.446 26.446s11.84 26.446 26.446 26.446c1.128 0 2.24-0.071 3.331-0.208l-0.13 0.013h135.73c0.961 0.124 2.073 0.194 3.201 0.194 14.606 0 26.446-11.84 26.446-26.446s-11.84-26.446-26.446-26.446c-1.128 0-2.24 0.071-3.331 0.208l0.13-0.013z" />
<glyph unicode="&#xe926;" d="M827.989 436.916c-29.426 0-53.281 23.855-53.281 53.281s23.855 53.281 53.281 53.281c29.426 0 53.281-23.855 53.281-53.281v0c0-29.426-23.855-53.281-53.281-53.281v0zM827.989 514.698c-13.532 0-24.501-10.97-24.501-24.501s10.97-24.501 24.501-24.501c13.532 0 24.501 10.97 24.501 24.501v0c0 13.532-10.97 24.501-24.501 24.501v0z" />
<glyph unicode="&#xe927;" glyph-name="vehicle" data-tags="vehicle" horiz-adv-x="1536" d="M1463.501 960h-968.704c-34.338-0.595-62.101-27.929-63.382-62.039l-0.004-0.118v-41.472h-177.664c-64.283-0.763-116.344-52.036-118.37-115.934l-0.005-0.187v-24.883c1.126-12.698 7.168-24.576 16.896-33.075l-38.093-145.203c-64.296-16.564-111.494-72.816-114.167-140.511l-0.009-0.289v-265.523c0-9.933 3.994-19.456 11.059-26.419 7.168-6.963 16.896-10.854 27.034-10.854h71.885c5.939-89.293 82.227-158.515 173.568-157.491 90.726 0.41 166.195 68.813 173.568 157.491h545.382c5.939-89.293 82.125-158.515 173.568-157.491 90.726 0.41 166.195 68.813 173.568 157.491h122.88c34.382 0.54 62.201 27.894 63.484 62.039l0.004 0.118v737.997c-4.83 36.646-35.152 64.852-72.351 66.35l-0.148 0.005zM1167.36 201.626c0.256 0.002 0.559 0.004 0.863 0.004 39.731 0 73.899-23.818 89.004-57.955l0.245-0.621c4.739-10.846 7.497-23.484 7.497-36.766 0-26.316-10.826-50.104-28.266-67.153l-0.018-0.017c-17.777-17.373-42.122-28.092-68.97-28.092-13.34 0-26.062 2.646-37.669 7.442l0.656-0.24c-35.409 14.26-60.009 48.2-60.313 87.923v0.038c1.088 52.803 44.041 95.218 96.952 95.437h0.021zM279.142 201.626c34.816 0 66.867-18.125 84.275-47.616s17.408-65.843 0-95.334c-17.348-28.773-48.432-47.719-83.942-47.719-0.117 0-0.234 0-0.352 0.001h0.018c-0.504-0.009-1.098-0.015-1.693-0.015-26.279 0-50.111 10.475-67.549 27.478l0.020-0.020c-17.323 16.872-28.068 40.423-28.068 66.485 0 0.495 0.004 0.988 0.012 1.481l-0.001-0.074c1.147 52.866 44.252 95.289 97.276 95.334h0.004zM253.747 781.926h177.664v-33.178h-219.955c3.841 18.957 20.37 33.027 40.184 33.027 0.741 0 1.478-0.020 2.209-0.059l-0.102 0.004v0.205zM431.411 674.202v-136.806h-236.851l33.792 136.806h203.059zM469.504 379.904c-0.065 0-0.141 0.001-0.218 0.001-10.394 0-19.821-4.141-26.722-10.863l0.008 0.008c-6.888-6.689-11.162-16.037-11.162-26.383 0-0.013 0-0.026 0-0.038v0.002-157.491c-30.72 54.067-89.088 87.347-152.269 86.835-0.905 0.017-1.973 0.027-3.043 0.027-70.251 0-130.655-42.159-157.292-102.556l-0.433-1.1h-42.189v87.040h16.896c0.007 0 0.015 0 0.023 0 50.744 0 92.015 40.561 93.16 91.030l0.002 0.106v53.965c-0.048 10.336-4.354 19.657-11.253 26.306l-0.011 0.011c-6.903 6.775-16.372 10.957-26.818 10.957-0.004 0-0.008 0-0.012 0h-63.487c12.029 20.006 33.621 33.184 58.291 33.184 0.315 0 0.63-0.002 0.944-0.006l-0.048 0.001h287.539v-16.589c0-20.685 17.101-37.376 38.093-37.376 0.122-0.001 0.266-0.002 0.411-0.002 20.705 0 37.509 16.698 37.682 37.362v431.12h947.507v-717.107h-126.976c-28.052 61.531-89.025 103.529-159.807 103.529-0.338 0-0.675-0.001-1.012-0.003h0.052c-69.837 0-133.018-40.653-160.666-103.526h-503.398v174.080c0.118 1.053 0.185 2.275 0.185 3.512 0 8.674-3.298 16.577-8.708 22.525l0.024-0.027c-6.308 6.852-15.287 11.16-25.274 11.264h-0.019v0.205zM93.389 326.042h-17.203v32.87h33.792v-16.589c-4.198-8.192-8.704-16.486-16.896-16.486h0.307z" />
<glyph unicode="&#xe928;" glyph-name="build-mode" data-tags="build-mode" d="M781.653 546.406c0.062 0.599 0.098 1.294 0.098 1.997s-0.035 1.398-0.105 2.083l0.007-0.086v280.269c0 11.311-9.169 20.48-20.48 20.48v0h-491.52c-11.311 0-20.48-9.169-20.48-20.48v-280.269c-0.076-0.661-0.119-1.426-0.119-2.202s0.043-1.541 0.127-2.294l-0.008 0.093c-1.227-7.423-1.928-15.978-1.928-24.696 0-23.742 5.199-46.27 14.522-66.506l-0.408 0.988c17.613-36.352 48.845-51.2 76.39-63.59 17.818-6.793 34.133-16.964 48.026-30.003 42.496-46.080 40.96-95.232 33.69-170.701-3.277-33.894-3.891-96.666 29.491-135.987 15.809-18.57 38.874-30.554 64.757-31.534l0.165-0.005h2.56c26.047 0.985 49.113 12.969 64.817 31.413l0.105 0.126c33.485 39.322 32.87 102.4 29.491 135.987-7.373 75.469-8.806 124.621 33.69 170.598 13.892 13.039 30.208 23.211 48.026 30.003 27.546 12.8 58.778 27.238 76.39 63.59 13.039 28.331 17.442 59.904 12.698 90.726zM290.133 810.189h450.56v-239.309h-450.56v239.309zM732.399 474.010c-11.162-23.142-32.256-32.973-56.73-44.237-23.693-9.449-43.949-22.801-60.96-39.455l0.032 0.031c-58.061-62.874-51.2-133.837-44.339-202.445 4.506-46.080-2.97-85.504-20.48-105.472-8.249-10.367-20.866-16.954-35.021-16.954s-26.771 6.587-34.951 16.863l-0.070 0.091c-16.998 20.48-24.474 59.392-20.48 105.472 6.758 68.608 13.722 139.571-44.442 202.445-16.951 16.613-37.172 29.963-59.599 38.988l-1.227 0.436c-24.474 11.366-45.568 21.094-56.73 44.237-6.338 13.721-10.034 29.776-10.034 46.694 0 3.389 0.148 6.742 0.439 10.056l-0.030-0.429h454.246c0.26-2.884 0.408-6.238 0.408-9.626 0-16.918-3.696-32.973-10.325-47.401l0.291 0.707z" />
<glyph unicode="&#xe929;" glyph-name="center-object" data-tags="center-object" d="M354.403 275.175l3.634-108.643-44.759-47.996-1.817 76.965-106.991-113.169c-4.214-4.272-9.967-7.016-16.359-7.331l-0.058-0.002c-0.062-0.001-0.136-0.001-0.209-0.001-5.993 0-11.414 2.452-15.313 6.407l-0.002 0.002c-4.496 4.011-7.314 9.822-7.314 16.292 0 6.006 2.428 11.444 6.357 15.387l-0.001-0.001 106.034 113.135-76.701-2.709 44.759 47.996 108.742 3.667zM802.287 599.255l44.759 47.996-76.701-2.709 105.967 112.277c3.754 4.014 6.059 9.424 6.059 15.372 0 6.41-2.678 12.196-6.975 16.298l-0.009 0.008c-4.072 3.689-9.5 5.947-15.455 5.947-6.426 0-12.237-2.629-16.418-6.869l-0.003-0.003-107.025-113.169-2.742 76.932-44.792-47.996 3.634-108.511 109.667 4.426zM770.312 226.287l76.701-2.742-44.759 47.996-109.7 3.634-3.667-108.643 44.759-47.996 2.742 76.965 106.034-113.169c4.36-4.393 10.24-7.003 16.45-7.267 0.091-0.001 0.199-0.002 0.307-0.002 5.961 0 11.356 2.425 15.25 6.343l0.001 0.001c4.486 4.011 7.296 9.815 7.296 16.276 0 6.013-2.435 11.458-6.372 15.402v0l-105.043 113.202zM311.428 674.403l-106.958 113.169c-4.071 4.485-9.924 7.289-16.431 7.289-6.057 0-11.546-2.429-15.547-6.367l0.003 0.003c-4.496-4.011-7.314-9.822-7.314-16.292 0-6.022 2.442-11.474 6.389-15.419v0l106.034-113.169-76.701 2.709 44.759-47.996 109.667-3.501 3.7 108.577-44.759 47.963-2.841-76.965zM656.054 545.842v-221.812c-0.056-11.049-9.026-19.985-20.083-19.985-0.035 0-0.070 0-0.105 0h-223.855c-0.030 0-0.064 0-0.099 0-11.057 0-20.027 8.935-20.083 19.979v221.817c0 11.033 9.018 19.985 20.15 19.985h223.959c0.131 0.003 0.286 0.005 0.441 0.005 5.43 0 10.351-2.184 13.93-5.721l-0.002 0.002c3.799-3.799 5.88-8.919 5.748-14.27zM614.929 525.857h-182.867v-181.050h182.834v181.017z" />
<glyph unicode="&#xe92a;" glyph-name="design" data-tags="design" d="M947.2 806.4c28.277 0 51.2-22.923 51.2-51.2v0-512c0-28.277-22.923-51.2-51.2-51.2v0l-78.131-0.034c-4.019-2.361-8.853-3.755-14.012-3.755-0.006 0-0.012 0-0.018 0h-552.959c-5.12 0-9.899 1.365-14.029 3.755l-57.651 0.034c-28.277 0-51.2 22.923-51.2 51.2v0 358.4h-102.4v-512h716.8v46.933l51.2-46.933c0-28.277-22.923-51.2-51.2-51.2v0h-716.8c-28.277 0-51.2 22.923-51.2 51.2v0 512c0.001 26.545 20.204 48.371 46.072 50.944l0.213 0.017 4.915 0.239h102.4v102.4c0 28.277 22.923 51.2 51.2 51.2v0h716.8zM947.2 755.2h-716.8v-512h47.445c19.251 74.001 105.711 191.488 177.835 191.488 43.145 0 69.769-16.043 87.45-45.227l0.512-0.887c5.734 17.51 15.804 49.971 18.842 58.812 25.259 73.523 55.023 114.108 108.237 114.108 79.667 0 189.44-218.556 209.34-318.327l67.14 0.034v512zM670.72 505.173c-19.422 0-37.171-24.201-54.955-76.083-3.311-9.557-18.5-58.812-22.767-70.144-10.923-29.013-21.163-43.93-45.158-43.93-22.118 0-34.372 11.23-45.193 31.095l-0.307 0.58c-3.662 7.126-6.113 11.571-8.631 15.973l1.258-2.388c-7.817 12.868-16.521 18.091-39.287 18.091-22.084 0-53.009-26.146-82.125-69.973-12.177-18.237-23.68-39.199-33.353-61.149l-1.054-2.68h480.393c-17.189 52.165-34.28 94.656-53.619 135.882l3.135-7.439c-37.956 81.067-77.278 132.164-98.338 132.164zM419.84 704c48.265 0 87.040-40.004 87.040-88.986s-38.775-88.986-87.040-88.986-87.040 40.004-87.040 88.986c0 48.981 38.775 88.986 87.040 88.986zM419.84 652.8c-19.627 0-35.84-16.725-35.84-37.786s16.213-37.786 35.84-37.786c19.627 0 35.84 16.725 35.84 37.786 0 21.026-16.213 37.786-35.84 37.786z" />
<glyph unicode="&#xe92b;" glyph-name="door" data-tags="door" d="M671.403 851.046v-804.523h-38.127v804.523zM671.403 893.884l-0.034-37.171h171.281v-817.425h-171.247v-59.358l-418.987 74.513v15.428l-0.41 755.78v15.428l15.565 2.765 403.831 72.26v-22.221zM633.344 838.144l0.034 33.485-343.381-61.44 0.41-724.855 342.869-60.996v52.087h171.247v743.117h-171.179v18.603zM523.571 495.957c-8.329 0-16.145-4.642-22.050-12.151-7.031-8.875-11.366-21.504-11.366-35.806 0-14.268 4.335-26.897 11.366-35.806 5.905-7.509 13.722-12.151 22.050-12.151 8.294 0 16.111 4.676 22.084 12.22 7.031 8.875 11.366 21.504 11.366 35.738s-4.335 26.829-11.366 35.738c-5.973 7.543-13.79 12.22-22.084 12.22zM471.415 506.3c13.073 16.555 31.471 26.829 52.156 26.829 20.719 0 39.117-10.24 52.156-26.761 12.121-15.732 19.427-35.719 19.427-57.412 0-0.336-0.002-0.672-0.005-1.007v0.051c0.003-0.284 0.005-0.62 0.005-0.956 0-21.693-7.306-41.68-19.591-57.634l0.164 0.222c-13.039-16.521-31.437-26.761-52.156-26.761-20.685 0-39.083 10.24-52.156 26.829-12.1 15.72-19.392 35.686-19.392 57.356 0 0.332 0.002 0.663 0.005 0.994v-0.051c0 22.46 7.407 43.11 19.388 58.3z" />
<glyph unicode="&#xe92c;" glyph-name="edit" data-tags="edit" d="M780.134 672l-112.384 112.435c-14.361 14.361-34.201 23.243-56.115 23.243s-41.754-8.882-56.115-23.243l-334.848-334.899c-9.574-9.592-16.736-21.595-20.498-35.019l-0.135-0.565-62.413-233.216c-0.695-2.478-1.094-5.323-1.094-8.262 0-17.532 14.212-31.744 31.744-31.744 2.939 0 5.784 0.399 8.485 1.147l-0.223-0.053 233.216 62.464c13.414 3.584 25.702 10.65 35.584 20.48l334.848 334.95c14.361 14.361 23.243 34.201 23.243 56.115s-8.882 41.754-23.243 56.115v0zM634.061 660.89l-304.794-304.947c-5.75-5.757-13.698-9.318-22.477-9.318-17.545 0-31.769 14.223-31.769 31.769 0 8.766 3.551 16.703 9.292 22.452l304.844 304.998c5.748 5.741 13.685 9.292 22.451 9.292 17.545 0 31.769-14.223 31.769-31.769 0-8.779-3.561-16.726-9.317-22.476v0z" />
<glyph unicode="&#xe92d;" d="M882.044 251.158l-17.086 24.108c52.008 37.234 85.521 97.426 85.606 165.45v0.014c0 64.19-30.925 125.264-82.695 163.372l17.525 23.815c57.593-42.876 94.543-110.698 94.72-187.159v-0.029c0-75.176-36.659-146.037-98.070-189.572zM141.956 251.158c-59.587 42.656-97.981 111.62-98.070 189.557v0.014c0.176 76.492 37.132 144.316 94.115 186.746l0.62 0.441 17.525-23.815c-50.286-37.409-82.548-96.607-82.695-163.348v-0.024c0-65.609 32.007-127.444 85.606-165.464l-17.101-24.108zM835.76 313.958l-16.867 24.283c32.599 22.823 53.658 60.193 53.687 102.483v0.005c0 39.497-19.032 77.078-50.893 100.513l17.525 23.815c38.268-28.468 62.82-73.519 62.932-124.31v-0.018c0-50.542-24.81-97.924-66.384-126.771zM188.24 313.958c-40.32 28.229-66.364 74.457-66.384 126.768v0.003c0 48.859 23.523 95.334 62.932 124.328l17.525-23.815c-30.944-23.012-50.799-59.434-50.893-100.498v-0.015c0.021-42.296 21.083-79.669 53.285-102.221l0.402-0.267-16.867-24.283z" />
<glyph unicode="&#xe92e;" d="M777.509 243.653v245.394c0 106.949-63.693 199.080-155.004 241.108 0.746 5.237 1.214 10.518 1.214 15.828 0 61.601-50.117 111.704-111.718 111.704s-111.718-50.103-111.718-111.704c0-5.31 0.468-10.576 1.214-15.828-91.326-42.028-155.004-134.173-155.004-241.108v-245.394c-20.948-12.025-35.255-34.348-35.255-60.167 0.050-38.429 31.189-69.567 69.613-69.617h142.136c7.095-42.789 44.251-75.557 89.015-75.557s81.92 32.753 89 75.542h142.131c38.429 0.050 69.567 31.189 69.617 69.613v0.005c0.015 25.834-14.292 48.157-35.24 60.182zM429.846 745.984c0.058 45.346 36.807 82.090 82.149 82.139h0.005c45.347-0.050 82.096-36.793 82.154-82.134v-0.006c0-1.507-0.205-2.984-0.278-4.476-24.445 8.266-52.599 13.044-81.867 13.063h-0.009c-28.584 0-56.057-4.667-81.876-13.063-0.073 1.492-0.278 2.984-0.278 4.476zM276.056 253.104v235.944c0 130.107 105.838 235.944 235.944 235.944s235.944-105.838 235.944-235.944v-235.944h-471.888zM512 67.877c-28.296 0.033-52.066 19.374-58.846 45.555l-0.093 0.423h117.877c-6.872-26.603-30.642-45.944-58.935-45.978h-0.004zM743.146 143.419h-462.277c-22.111 0.025-40.028 17.942-40.053 40.051v0.002c0.025 22.111 17.942 40.028 40.051 40.053h462.28c22.111-0.025 40.028-17.942 40.053-40.051v-0.002c-0.033-22.107-17.946-40.020-40.050-40.053h-0.003z" />
<glyph unicode="&#xe92f;" d="M610.714 280.064l-114.498 121.476v232.872h31.539v-220.248l105.867-112.333z" />
<glyph unicode="&#xe930;" d="M527.301-5.486c-59.392 0-118.638 13.239-174.431 39.585-170.086 80.355-264.090 272.486-223.568 456.865 25.454 115.8 95.788 211.471 198.071 269.356 57.63 33.237 126.748 52.845 200.445 52.845 42.66 0 83.786-6.57 122.42-18.754l-2.88 0.783-54.389 81.627c-1.673 2.476-2.67 5.527-2.67 8.811 0 5.456 2.753 10.269 6.945 13.126l0.055 0.035c2.464 1.68 5.507 2.682 8.784 2.682 5.444 0 10.242-2.766 13.065-6.97l0.036-0.056 84.904-127.429c2.721-4.096 3.394-9.26 1.814-13.926-1.58-4.681-5.237-8.338-9.904-9.904l-144.677-48.83c-1.502-0.524-3.234-0.826-5.036-0.826-6.919 0-12.797 4.461-14.914 10.663l-0.033 0.111c-0.524 1.508-0.827 3.246-0.827 5.055 0 6.933 4.449 12.827 10.649 14.982l0.111 0.034 108.837 36.718c-0.725 0.15-1.343 0.327-1.941 0.543l0.098-0.031c-100.908 34.377-212.246 23.845-305.415-28.891-94.34-53.424-159.261-141.692-182.755-248.613-37.391-170.057 49.328-347.253 206.204-421.347 94.106-44.471 199.022-48.523 295.38-11.381 95.349 36.703 172.661 111.616 212.1 205.531 2.436 5.734 8.021 9.682 14.528 9.682 2.213 0 4.319-0.457 6.23-1.281l-0.102 0.039c8.016-3.394 11.776-12.683 8.397-20.743-42.759-101.815-126.537-183.047-229.873-222.822-43.195-17.202-93.249-27.205-145.631-27.268h-0.026z" />
<glyph unicode="&#xe931;" glyph-name="drawing" data-tags="drawing" d="M160-64c-88.366 0-160 71.634-160 160s71.634 160 160 160c88.366 0 160-71.634 160-160v0c0-88.366-71.634-160-160-160v0zM160 192c-53.019 0-96-42.981-96-96s42.981-96 96-96c53.019 0 96 42.981 96 96v0c0 53.019-42.981 96-96 96v0zM288 64c-17.673 0-32 14.327-32 32v704c0 53.019-42.981 96-96 96v0c-53.019 0-96-42.981-96-96v0-704c0-17.673-14.327-32-32-32s-32 14.327-32 32v0 704c0 88.366 71.634 160 160 160v0 0c88.366 0 160-71.634 160-160v0-704c0-17.673-14.327-32-32-32v0zM992-64h-832c-17.673 0-32 14.327-32 32s14.327 32 32 32h800v672h-672c-17.673 0-32 14.327-32 32s14.327 32 32 32h704c17.673 0 32-14.327 32-32v0-736c0-17.673-14.327-32-32-32v0zM480-64c-17.673 0-32 14.327-32 32v0 160c0 17.673 14.327 32 32 32v0h128c17.673 0 32-14.327 32-32s-14.327-32-32-32h-96v-128c0-17.673-14.327-32-32-32v0zM800 224c-17.673 0-32 14.327-32 32v0 128c0 17.673 14.327 32 32 32h192c17.673 0 32-14.327 32-32s-14.327-32-32-32h-160v-96c0-17.673-14.327-32-32-32v0zM480 320h-192c-17.673 0-32 14.327-32 32s14.327 32 32 32h192c17.673 0 32-14.327 32-32s-14.327-32-32-32v0zM608 512h-128c-17.673 0-32 14.327-32 32v0 160c0 17.673 14.327 32 32 32s32-14.327 32-32v0-128h96c17.673 0 32-14.327 32-32s-14.327-32-32-32v0z" />
<glyph unicode="&#xe932;" glyph-name="couch" data-tags="couch" d="M974.769 203.815h-945.231c-16.314 0-29.538 13.225-29.538 29.538v0 259.938c0 55.466 44.964 100.431 100.431 100.431s100.431-44.964 100.431-100.431v0-88.615h602.585v88.615c0 55.466 44.964 100.431 100.431 100.431s100.431-44.964 100.431-100.431v-259.938c0-16.314-13.225-29.538-29.538-29.538v0zM59.077 262.892h886.154v230.4c0 22.839-18.515 41.354-41.354 41.354s-41.354-18.515-41.354-41.354v0-118.154c0-16.314-13.225-29.538-29.538-29.538v0h-661.662c-16.314 0-29.538 13.225-29.538 29.538v0 118.154c0 22.839-18.515 41.354-41.354 41.354s-41.354-18.515-41.354-41.354v0zM856.615 132.923v0c-42.648 1.1-76.8 35.934-76.8 78.745 0 0.009 0 0.017 0 0.026v-0.001 23.631h59.077v-23.631c0-9.788 7.935-17.723 17.723-17.723v0 0c9.788 0 17.723 7.935 17.723 17.723v0 23.631h61.046v-23.631c0-0.007 0-0.016 0-0.025 0-42.811-34.152-77.645-76.698-78.743l-0.102-0.002zM147.692 132.923c-43.503 0-78.769 35.266-78.769 78.769v0 23.631h59.077v-23.631c0-9.788 7.935-17.723 17.723-17.723s17.723 7.935 17.723 17.723v0 23.631h63.015v-23.631c0-43.503-35.266-78.769-78.769-78.769v0zM531.692 448h-59.077v275.692h-324.923c-9.788 0-17.723-7.935-17.723-17.723v0-141.785h-61.046v141.785c0 43.503 35.266 78.769 78.769 78.769v0h708.923c43.503 0 78.769-35.266 78.769-78.769v0-141.785h-59.077v141.785c0 0.033 0 0.071 0 0.11 0 9.788-7.935 17.723-17.723 17.723-0.694 0-1.379-0.040-2.052-0.117l0.082 0.008h-324.923z" />
<glyph unicode="&#xe933;" glyph-name="payment" data-tags="payment" d="M512 96.627c-16.634 0-30.118 13.484-30.118 30.118v0 58.227c-74.178 14.53-129.531 78.565-130.509 155.703l-0.001 0.105c0 16.634 13.484 30.118 30.118 30.118s30.118-13.484 30.118-30.118v0c0-0.006 0-0.013 0-0.020 0-54.336 44.048-98.384 98.384-98.384 0.706 0 1.41 0.007 2.113 0.022l-0.105-0.002c2.653-0.279 5.732-0.438 8.848-0.438 48.905 0 88.654 39.203 89.535 87.898l0.001 0.083c0 42.968-35.338 72.684-104.809 88.345-125.691 29.716-154.202 96.376-154.202 147.376 0.231 74.475 55.818 135.896 127.761 145.289l0.741 0.079v58.227c0 16.634 13.484 30.118 30.118 30.118s30.118-13.484 30.118-30.118v0-58.227c65.033-12.69 115.236-63.841 126.36-128.365l0.134-0.941c0.268-1.509 0.421-3.246 0.421-5.020 0-16.644-13.493-30.137-30.137-30.137-14.871 0-27.226 10.771-29.69 24.937l-0.026 0.18c-8.656 45.99-48.508 80.317-96.377 80.317-0.282 0-0.564-0.001-0.846-0.004h0.043c-2.653 0.279-5.732 0.438-8.848 0.438-48.905 0-88.654-39.203-89.535-87.898l-0.001-0.083c0-16.063 0-64.251 105.211-88.345 134.124-28.11 155.809-103.605 155.809-145.769-0.231-74.475-55.818-135.896-127.761-145.289l-0.741-0.079v-58.227c0-0.020 0-0.043 0-0.067 0-16.634-13.484-30.118-30.118-30.118-0.706 0-1.407 0.024-2.102 0.072l0.094-0.005zM512-64c-282.77 0-512 229.23-512 512s229.23 512 512 512c282.77 0 512-229.23 512-512v0c-0.229-282.678-229.322-511.771-511.978-512h-0.022zM512 899.765c-249.503 0-451.765-202.262-451.765-451.765s202.262-451.765 451.765-451.765c249.503 0 451.765 202.262 451.765 451.765v0c-0.229 249.411-202.354 451.536-451.743 451.765h-0.021z" />
<glyph unicode="&#xe934;" glyph-name="home" data-tags="home" d="M981.333 405.333c-0.073 0-0.16-0.001-0.247-0.001-11.721 0-22.338 4.726-30.049 12.377l-439.037 439.464-439.040-439.467c-7.412-6.377-17.129-10.259-27.753-10.259-23.564 0-42.667 19.103-42.667 42.667 0 10.624 3.883 20.341 10.307 27.809l-0.047-0.056 469.333 469.333c7.712 7.668 18.343 12.407 30.080 12.407s22.368-4.74 30.082-12.409l469.331-469.331c7.542-7.69 12.197-18.235 12.197-29.867 0-23.502-19.002-42.566-42.481-42.666h-0.010zM864-64h-704c-23.564 0-42.667 19.103-42.667 42.667v0 586.667c0 23.564 19.103 42.667 42.667 42.667s42.667-19.103 42.667-42.667v0-544h618.667v544c0 23.564 19.103 42.667 42.667 42.667s42.667-19.103 42.667-42.667v0-586.667c0-23.564-19.103-42.667-42.667-42.667v0zM394.667-64c-23.564 0-42.667 19.103-42.667 42.667v0 352c0 23.564 19.103 42.667 42.667 42.667v0h234.667c23.564 0 42.667-19.103 42.667-42.667s-19.103-42.667-42.667-42.667v0h-192v-309.333c0-23.564-19.103-42.667-42.667-42.667v0zM469.333 149.333h-74.667c-23.564 0-42.667 19.103-42.667 42.667s19.103 42.667 42.667 42.667v0h74.667c23.564 0 42.667-19.103 42.667-42.667s-19.103-42.667-42.667-42.667v0z" />
<glyph unicode="&#xe935;" glyph-name="filter" data-tags="filter" horiz-adv-x="1025" d="M452.833-64c-0.384-0.007-0.836-0.011-1.289-0.011-15.432 0-29.807 4.52-41.876 12.308l0.305-0.184c-22.704 15.848-37.372 41.849-37.372 71.275 0 1.476 0.037 2.944 0.11 4.402l-0.008-0.205v244.12c0 5.591 0 9.318-15.84 26.089s-106.22 98.766-279.527 258.096l-30.748 24.226c-27.217 22.439-44.908 55.586-46.578 92.902l-0.010 0.273v138.832c0 25.73 20.858 46.588 46.588 46.588s46.588-20.858 46.588-46.588v0-143.49c4.021-7.729 9.338-14.237 15.732-19.481l0.108-0.086 30.748-24.226c186.351-173.307 273.005-250.642 286.049-266.482 24.675-22.725 40.080-55.191 40.080-91.254 0-0.676-0.005-1.35-0.016-2.023l0.001 0.102v-233.871c38.064 19.189 69.434 46.68 92.641 80.246l0.534 0.817v152.808c-0.446 3.976-0.7 8.586-0.7 13.255 0 30.449 10.819 58.371 28.822 80.132l-0.169-0.211 329.842 295.367c8.495 5.22 14.423 13.912 15.82 24.051l0.020 0.175v134.173c0 25.73 20.858 46.588 46.588 46.588s46.588-20.858 46.588-46.588v0-135.105c-2.255-38.228-21.387-71.57-49.987-92.941l-0.328-0.234-324.251-288.844s0-6.522 0-25.157v-155.603c0-71.745-112.742-146.286-151.876-163.989-13.681-6.339-29.676-10.099-46.534-10.249h-0.054zM512.466 649.725c-85.722 0-512.466 7.454-512.466 154.672s426.744 155.603 512.466 155.603 512.466-7.454 512.466-155.603-426.744-154.672-512.466-154.672zM102.493 804.397c103.234-40.185 222.732-63.471 347.668-63.471 21.921 0 43.674 0.717 65.237 2.128l-2.933-0.154c18.194-1.199 39.443-1.882 60.852-1.882 125.828 0 246.144 23.597 356.766 66.606l-6.713-2.297c-103.361 40.204-223.003 63.5-348.085 63.5-22.102 0-44.034-0.727-65.773-2.159l2.954 0.156c-17.909 1.161-38.831 1.822-59.907 1.822-125.827 0-246.148-23.574-356.787-66.547l6.721 2.297z" />
<glyph unicode="&#xe936;" glyph-name="cart-2" data-tags="cart" horiz-adv-x="788" d="M698.027 26.88h-608v580.267h67.413v-78.507c-0.136-1.316-0.213-2.843-0.213-4.388 0-24.978 20.249-45.227 45.227-45.227s45.227 20.249 45.227 45.227c0 1.545-0.077 3.072-0.229 4.577l0.015-0.19v78.507h292.693v-78.507c-0.136-1.316-0.213-2.843-0.213-4.388 0-24.978 20.249-45.227 45.227-45.227s45.227 20.249 45.227 45.227c0 1.545-0.077 3.072-0.229 4.577l0.015-0.19v78.507h67.413zM247.893 718.933c-0.002 0.279-0.003 0.61-0.003 0.941 0 80.675 63.973 146.408 143.958 149.238l0.259 0.007h4.693c80.243-2.837 144.216-68.571 144.216-149.246 0-0.331-0.001-0.662-0.003-0.992v0.051-20.48h-293.12zM774.827 684.8c-8.013 8.279-19.169 13.473-31.54 13.653h-112.674v20.48c0.002 0.399 0.004 0.871 0.004 1.344 0 130.481-104.219 236.621-233.956 239.717l-0.288 0.005h-4.693c-130.024-3.101-234.244-109.241-234.244-239.723 0-0.473 0.001-0.945 0.004-1.417v0.073-20.48h-112.213c-25.136-0.704-45.245-21.248-45.245-46.49 0-0.456 0.007-0.911 0.020-1.364l-0.002 0.067v-669.013c-0.001-0.127-0.002-0.277-0.002-0.427 0-24.978 20.249-45.227 45.227-45.227 0.001 0 0.001 0 0.002 0h698.027c0.001 0 0.001 0 0.002 0 24.978 0 45.227 20.249 45.227 45.227 0 0.15-0.001 0.3-0.002 0.45v-0.023 669.867c-0.046 12.965-5.248 24.706-13.661 33.288l0.008-0.008z" />
<glyph unicode="&#xe937;" glyph-name="category" data-tags="category" d="M793.6-64c-127.246 0-230.4 103.154-230.4 230.4s103.154 230.4 230.4 230.4c127.246 0 230.4-103.154 230.4-230.4v0c-0.242-127.149-103.251-230.158-230.377-230.4h-0.023zM793.6 311.467c-80.118 0-145.067-64.949-145.067-145.067s64.949-145.067 145.067-145.067c80.118 0 145.067 64.949 145.067 145.067v0c0 80.118-64.949 145.067-145.067 145.067v0zM1024 499.2h-460.8v460.8h460.8zM648.533 584.533h290.133v290.133h-290.133zM375.467 499.2h-290.133c-47.128 0-85.333 38.205-85.333 85.333v0 290.133c0 47.128 38.205 85.333 85.333 85.333v0h290.133c47.128 0 85.333-38.205 85.333-85.333v0-290.133c0-47.128-38.205-85.333-85.333-85.333v0zM85.333 874.667v0-290.133h290.133v290.133zM375.467-64h-290.133c-47.128 0-85.333 38.205-85.333 85.333v0 290.133c0 47.128 38.205 85.333 85.333 85.333v0h290.133c47.128 0 85.333-38.205 85.333-85.333v0-290.133c0-47.128-38.205-85.333-85.333-85.333v0zM85.333 311.467v0-290.133h290.133v290.133z" />
<glyph unicode="&#xe938;" glyph-name="change" data-tags="change" d="M512-64c-15.977 0-28.929 12.952-28.929 28.929v0 644.095c1.652 14.554 13.894 25.758 28.754 25.758s27.103-11.204 28.742-25.625l0.012-0.133v-644.444c-0.194-15.706-12.874-28.386-28.562-28.58h-0.018zM995.42-23.57h-322.396c-0.104-0.001-0.227-0.002-0.351-0.002-15.784 0-28.58 12.796-28.58 28.58 0 0.123 0.001 0.246 0.002 0.369v-0.019 563.583c0 15.977 12.952 28.929 28.929 28.929v0h322.396c15.977 0 28.929-12.952 28.929-28.929v-563.932c0.001-0.104 0.002-0.227 0.002-0.351 0-15.784-12.796-28.58-28.58-28.58-0.123 0-0.246 0.001-0.369 0.002h0.019zM701.952 33.939h263.145v506.075h-263.145zM350.976-23.918h-322.396c-15.977 0-28.929 12.952-28.929 28.929v0 563.932c0 15.977 12.952 28.929 28.929 28.929v0h322.396c0.001 0 0.001 0 0.002 0 15.784 0 28.58-12.796 28.58-28.58 0-0.123-0.001-0.245-0.002-0.367v0.019-563.932c0-0.001 0-0.001 0-0.002 0-15.854-12.754-28.73-28.561-28.926h-0.019zM58.903 33.59h264.539v506.423h-264.539zM254.083 657.122c-15.977 0-28.929 12.952-28.929 28.929v0c3.664 152.112 127.843 274.021 280.495 274.021 2.233 0 4.46-0.026 6.68-0.078l-0.33 0.006c1.789 0.041 3.897 0.064 6.010 0.064 152.527 0 276.627-121.71 280.48-273.308l0.007-0.357c-1.652-14.554-13.894-25.758-28.754-25.758s-27.103 11.204-28.742 25.625l-0.012 0.133c-4.581 119.579-102.628 214.781-222.91 214.781-2.138 0-4.268-0.030-6.391-0.090l0.312 0.007c-1.797 0.052-3.911 0.082-6.032 0.082-120.772 0-219.127-95.98-222.948-215.823l-0.009-0.351c-0.579-15.521-13.301-27.883-28.91-27.883-0.007 0-0.013 0-0.020 0h0.001zM781.070 648.060c-5.261 0.019-10.187 1.44-14.428 3.908l0.138-0.074-150.219 85.391c-7.518 5.297-12.368 13.942-12.368 23.72 0 15.977 12.952 28.929 28.929 28.929 4.224 0 8.236-0.905 11.854-2.532l-0.183 0.073 126.17-69.707 69.707 127.913c5.323 7.228 13.8 11.865 23.36 11.865 15.977 0 28.929-12.952 28.929-28.929 0-3.899-0.771-7.618-2.17-11.012l0.070 0.192-84.694-155.099c-3.789-6.585-9.916-11.464-17.223-13.543l-0.204-0.050c-2.282-0.664-4.902-1.046-7.612-1.046-0.019 0-0.039 0-0.058 0h0.003z" />
<glyph unicode="&#xe939;" glyph-name="zoom-out" data-tags="zoom-out" d="M512-64c-282.77 0-512 229.23-512 512s229.23 512 512 512c282.77 0 512-229.23 512-512v0c0-282.77-229.23-512-512-512v0zM512 881.231c-239.267 0-433.231-193.964-433.231-433.231s193.964-433.231 433.231-433.231c239.267 0 433.231 193.964 433.231 433.231v0c0 239.267-193.964 433.231-433.231 433.231v0zM764.062 408.615h-504.123c-21.752 0-39.385 17.633-39.385 39.385s17.633 39.385 39.385 39.385v0h504.123c21.752 0 39.385-17.633 39.385-39.385s-17.633-39.385-39.385-39.385v0z" />
<glyph unicode="&#xe93a;" glyph-name="zoom-in" data-tags="zoom-in" d="M512-64c-282.77 0-512 229.23-512 512s229.23 512 512 512c282.77 0 512-229.23 512-512v0c0-282.77-229.23-512-512-512v0zM512 881.231c-239.267 0-433.231-193.964-433.231-433.231s193.964-433.231 433.231-433.231c239.267 0 433.231 193.964 433.231 433.231v0c0 239.267-193.964 433.231-433.231 433.231v0zM512 156.554c-21.752 0-39.385 17.633-39.385 39.385v0 212.677h-212.677c-21.752 0-39.385 17.633-39.385 39.385s17.633 39.385 39.385 39.385v0h212.677v212.677c0 21.752 17.633 39.385 39.385 39.385s39.385-17.633 39.385-39.385v0-212.677h212.677c21.752 0 39.385-17.633 39.385-39.385s-17.633-39.385-39.385-39.385v0h-212.677v-212.677c0-21.752-17.633-39.385-39.385-39.385v0z" />
<glyph unicode="&#xe93b;" glyph-name="profile" data-tags="profile" d="M128.063 106.667c-14.165 0-28.031 6.657-36.138 18.843-12.586 18.843-6.613 43.778 13.354 55.64l182.864 109.021c34.516 23.12 81.576 26.146 123.985 6.859 48.126-21.909 162.811-21.183 208.036 1.291 38.313 19.004 84.307 17.309 120.018-4.479l179.493-113.258c19.626-12.347 24.874-37.443 11.818-55.963-13.098-18.52-39.508-23.483-59.177-11.176l-178.938 112.895c-9.472 5.81-22.271 6.133-33.535 0.525-68.734-34.135-212.431-35.426-284.706-2.542-14.122 6.415-28.842 5.931-39.593-1.251l-184.783-110.191c-7.040-4.196-14.933-6.214-22.698-6.214zM529.067 707.413c-67.789 0-122.88-55.132-122.88-122.88s55.091-122.88 122.88-122.88c67.748 0 122.88 55.132 122.88 122.88s-55.132 122.88-122.88 122.88zM529.067 379.733c-112.927 0-204.8 91.873-204.8 204.8s91.873 204.8 204.8 204.8c112.927 0 204.8-91.873 204.8-204.8s-91.873-204.8-204.8-204.8v0z" />
<glyph unicode="&#xe93c;" glyph-name="search-2" data-tags="search-2" d="M470.281 823.467c184.324 0 333.748-149.424 333.748-333.748 0-77.114-26.153-148.119-70.073-204.63l141.291-141.337c16.292-16.292 16.292-42.707 0-58.999s-42.707-16.292-58.999 0v0l-141.337 141.291c-56.511-43.92-127.516-70.073-204.63-70.073-184.324 0-333.748 149.424-333.748 333.748s149.424 333.748 333.748 333.748zM470.281 740.030c-138.243 0-250.311-112.068-250.311-250.311s112.068-250.311 250.311-250.311c138.243 0 250.311 112.068 250.311 250.311s-112.068 250.311-250.311 250.311z" />
<glyph unicode="&#xe93d;" glyph-name="card" data-tags="card" d="M857.6 158.080h-691.2c0 0 0 0-0.001 0-39.829 0-72.137 32.197-72.319 71.983v404.177c0.362 39.665 32.601 71.68 72.317 71.68 0.001 0 0.002 0 0.003 0h691.2c0 0 0 0 0.001 0 39.829 0 72.137-32.197 72.319-71.983v-404.177c-0.362-39.665-32.601-71.68-72.317-71.68-0.001 0-0.002 0-0.003 0v0zM161.92 512v-281.92c0.165-2.162 1.959-3.853 4.149-3.853 0.117 0 0.232 0.005 0.346 0.014l-0.015-0.001h691.2c0.099-0.008 0.215-0.013 0.331-0.013 2.19 0 3.984 1.692 4.148 3.839l0.001 0.014v281.92zM161.92 579.84h700.16v54.4c-0.165 2.162-1.959 3.853-4.149 3.853-0.117 0-0.232-0.005-0.346-0.014l0.015 0.001h-691.2c-0.099 0.008-0.215 0.013-0.331 0.013-2.19 0-3.984-1.692-4.148-3.839l-0.001-0.014zM328.64 318.080h-104.64c-18.733 0-33.92 15.187-33.92 33.92s15.187 33.92 33.92 33.92v0h104.64c18.733 0 33.92-15.187 33.92-33.92s-15.187-33.92-33.92-33.92v0zM800 414.080h-78.4c-18.733 0-33.92 15.187-33.92 33.92s15.187 33.92 33.92 33.92v0h78.4c18.733 0 33.92-15.187 33.92-33.92s-15.187-33.92-33.92-33.92v0zM485.76 414.080h-261.76c-18.733 0-33.92 15.187-33.92 33.92s15.187 33.92 33.92 33.92v0h261.76c18.733 0 33.92-15.187 33.92-33.92s-15.187-33.92-33.92-33.92v0z" />
<glyph unicode="&#xe93e;" glyph-name="more" data-tags="more" d="M524.8 704c32.301-1.681 57.856-28.281 57.856-60.851 0-33.65-27.278-60.928-60.928-60.928-33.622 0-60.884 27.234-60.928 60.846v0.004c0.848 33.839 28.481 60.947 62.446 60.947 0.547 0 1.091-0.007 1.635-0.021l-0.080 0.002zM524.8 508.928c32.301-1.681 57.856-28.281 57.856-60.851 0-33.65-27.278-60.928-60.928-60.928-33.622 0-60.884 27.234-60.928 60.846v0.004c0.848 33.839 28.481 60.947 62.446 60.947 0.547 0 1.091-0.007 1.635-0.021l-0.080 0.002zM524.8 313.856c32.301-1.681 57.856-28.281 57.856-60.851 0-33.65-27.278-60.928-60.928-60.928-33.622 0-60.884 27.234-60.928 60.846v0.004c0.848 33.839 28.481 60.947 62.446 60.947 0.547 0 1.091-0.007 1.635-0.021l-0.080 0.002z" />
<glyph unicode="&#xe93f;" d="M684.233 280.131h-49.018c-13.907 0-25.18 11.274-25.18 25.18s11.274 25.18 25.18 25.18v0h49.353c13.907 0 25.18-11.274 25.18-25.18s-11.274-25.18-25.18-25.18v0zM487.155 280.131h-147.725c-13.907 0-25.18 11.274-25.18 25.18s11.274 25.18 25.18 25.18v0h147.725c13.907 0 25.18-11.274 25.18-25.18s-11.274-25.18-25.18-25.18v0zM684.233 380.852h-49.018c-13.907 0-25.18 11.274-25.18 25.18s11.274 25.18 25.18 25.18v0h49.353c13.907 0 25.18-11.274 25.18-25.18s-11.274-25.18-25.18-25.18v0zM536.509 380.852h-196.742c-13.907 0-25.18 11.274-25.18 25.18s11.274 25.18 25.18 25.18v0h197.414c13.907 0 25.18-11.274 25.18-25.18s-11.274-25.18-25.18-25.18v0zM684.233 531.934h-49.018c-13.907 0-25.18 11.274-25.18 25.18s11.274 25.18 25.18 25.18v0h49.353c13.907 0 25.18-11.274 25.18-25.18s-11.274-25.18-25.18-25.18v0zM487.155 531.934h-147.725c-13.907 0-25.18 11.274-25.18 25.18s11.274 25.18 25.18 25.18v0h147.725c13.907 0 25.18-11.274 25.18-25.18s-11.274-25.18-25.18-25.18v0zM684.233 632.656h-49.018c-13.907 0-25.18 11.274-25.18 25.18s11.274 25.18 25.18 25.18v0h49.353c13.907 0 25.18-11.274 25.18-25.18s-11.274-25.18-25.18-25.18v0zM536.509 632.656h-196.742c-13.907 0-25.18 11.274-25.18 25.18s11.274 25.18 25.18 25.18v0h197.414c13.907 0 25.18-11.274 25.18-25.18s-11.274-25.18-25.18-25.18v0z" />
<glyph unicode="&#xe940;" d="M365.618 45.115c-4.995 0.024-9.725 1.135-13.972 3.108l0.207-0.086-5.708 3.022-55.732 35.924-55.397-36.26c-5.271-3.606-11.785-5.758-18.801-5.758-18.542 0-33.574 15.031-33.574 33.574 0 0.018 0 0.036 0 0.053v-0.003 671.475h-39.953c-18.542 0-33.574 15.031-33.574 33.574s15.031 33.574 33.574 33.574v0h738.623c18.542 0 33.574-15.031 33.574-33.574s-15.031-33.574-33.574-33.574v0h-41.967v-671.475c0-0.015 0-0.033 0-0.051 0-18.542-15.031-33.574-33.574-33.574-7.016 0-13.53 2.152-18.917 5.833l0.115-0.075-53.382 36.26-53.718-37.603c-5.307-3.676-11.881-5.872-18.969-5.872s-13.663 2.196-19.081 5.945l0.112-0.073-56.068 37.603-55.061-37.603c-5.307-3.676-11.881-5.872-18.969-5.872s-13.663 2.196-19.081 5.945l0.112-0.073-56.404 37.603-51.368-33.574-5.372-3.022c-3.879-3.035-8.73-4.997-14.019-5.367l-0.082-0.005zM438.138 162.623c0.022 0 0.049 0 0.075 0 6.985 0 13.471-2.133 18.844-5.783l-0.117 0.075 55.061-36.26 55.061 37.603c5.307 3.676 11.881 5.872 18.969 5.872s13.663-2.196 19.081-5.945l-0.112 0.073 55.061-37.603 53.382 37.603c5.307 3.676 11.881 5.872 18.969 5.872s13.663-2.196 19.081-5.945l-0.112 0.073 21.487-14.437v606.342h-522.744v-608.021l21.487 14.437c5.271 3.606 11.785 5.758 18.801 5.758s13.53-2.152 18.917-5.833l-0.115 0.074 56.068-37.603 53.718 37.267c5.307 3.882 11.933 6.256 19.108 6.379h0.029z" />
<glyph unicode="&#xe941;" glyph-name="location" data-tags="location" d="M905.846-17.526h-787.692c-0.023 0-0.051 0-0.079 0-21.752 0-39.385 17.633-39.385 39.385 0 6.309 1.483 12.271 4.12 17.558l-0.103-0.228 114.215 227.249c6.558 13.168 19.925 22.055 35.367 22.055 0.028 0 0.055 0 0.083 0h253.239c10.955-0.047 20.847-4.559 27.957-11.809l0.006-0.006c7.116 7.256 17.008 11.768 27.954 11.815h253.252c0.023 0 0.051 0 0.079 0 15.443 0 28.809-8.888 35.264-21.827l0.103-0.228 112.64-227.249c2.534-5.058 4.017-11.020 4.017-17.329 0-21.752-17.633-39.385-39.385-39.385-0.028 0-0.055 0-0.083 0h0.004zM181.563 61.243h660.874l-73.649 148.48h-228.825c-10.955 0.047-20.847 4.559-27.957 11.809l-0.006 0.006c-7.116-7.256-17.008-11.768-27.954-11.815h-228.834zM512 124.258c-17.375 0.013-32.116 11.276-37.335 26.897l-0.081 0.278-62.622 189.834c-113.434 42.423-192.731 149.889-192.731 275.875 0 19.578 1.915 38.708 5.567 57.214l-0.307-1.865c24.676 138.5 144.184 242.292 287.935 242.292 161.396 0 292.234-130.838 292.234-292.234 0-1.55-0.012-3.098-0.036-4.642l0.003 0.233c-0.779-125.656-79.688-232.684-190.559-275.011l-2.032-0.681-62.622-189.834c-4.892-16.394-19.754-28.174-37.394-28.357h-0.021zM512 833.182c-0.109 0-0.238 0-0.368 0-104.248 0-191.042-74.728-209.737-173.539l-0.209-1.329c-2.698-12.792-4.243-27.49-4.243-42.548 0-97.908 65.312-180.561 154.745-206.768l1.523-0.383c12.692-3.637 22.591-13.147 26.7-25.322l0.081-0.278 31.508-92.554 31.508 95.311c4.116 12.37 13.857 21.851 26.109 25.528l0.279 0.072c91.521 26.555 157.326 109.539 157.538 207.926v0.025c0.002 0.355 0.003 0.775 0.003 1.195 0 111.813-85.651 203.621-194.922 213.392l-0.822 0.059zM512 465.329c-0.351-0.003-0.766-0.005-1.182-0.005-84.613 0-153.206 68.593-153.206 153.206s68.593 153.206 153.206 153.206c84.612 0 153.204-68.59 153.206-153.201v0c0-0.118 0.001-0.257 0.001-0.396 0-84.119-67.968-152.363-151.983-152.81h-0.042zM512 692.578c-0.351 0.006-0.766 0.009-1.182 0.009-41.11 0-74.437-33.327-74.437-74.437s33.327-74.437 74.437-74.437c41.107 0 74.432 33.321 74.437 74.427v0c0.003 0.234 0.004 0.511 0.004 0.789 0 40.538-32.752 73.427-73.239 73.648h-0.021z" />
<glyph unicode="&#xe942;" glyph-name="arrow-back" data-tags="arrow-back" horiz-adv-x="1144" d="M508.386 56.471c11.672-13.279 18.794-30.805 18.794-49.995s-7.122-36.716-18.867-50.080l0.073 0.085c-11.091-12.533-27.216-20.393-45.176-20.393s-34.085 7.861-45.121 20.33l-0.055 0.064-399.36 441.525c-11.79 13.231-18.994 30.772-18.994 49.995s7.204 36.764 19.060 50.070l-0.066-0.075 399.962 440.922c11.091 12.533 27.216 20.393 45.176 20.393s34.085-7.861 45.121-20.33l0.055-0.064c11.449-13.137 18.429-30.429 18.429-49.351 0-19.243-7.219-36.8-19.096-50.111l0.065 0.074-291.539-321.054h863.774c35.653-1.602 63.951-30.895 63.951-66.798 0-1.294-0.037-2.579-0.109-3.854l0.008 0.177c0.046-0.927 0.071-2.013 0.071-3.105 0-36.013-28.218-65.435-63.75-67.363l-0.171-0.007h-863.774z" />
<glyph unicode="&#xe943;" glyph-name="box" data-tags="box" d="M512 7.68c-0.003 0-0.007 0-0.011 0-4.441 0-8.661 0.942-12.473 2.638l0.196-0.078-409.6 181.76c-10.941 4.862-18.432 15.634-18.432 28.155 0 0.002 0 0.003 0 0.005v0 455.68c0 0.001 0 0.003 0 0.005 0 12.521 7.491 23.293 18.237 28.078l0.195 0.078 409.6 181.76c3.682 1.722 7.996 2.728 12.544 2.728s8.862-1.005 12.73-2.805l-0.186 0.078 409.6-181.76c10.941-4.862 18.432-15.634 18.432-28.155 0-0.002 0-0.003 0-0.005v0-456.192c0-0.001 0-0.003 0-0.005 0-12.521-7.491-23.293-18.237-28.078l-0.195-0.078-409.6-181.76c-3.304-1.324-7.134-2.093-11.144-2.093-0.582 0-1.161 0.016-1.736 0.048l0.080-0.004zM133.12 240.128l378.88-167.936 378.88 167.936v415.744l-378.88 167.936-378.88-167.936zM512 7.68c-16.966 0-30.72 13.754-30.72 30.72v0 436.224l-391.168 173.056c-10.943 4.863-18.436 15.636-18.436 28.16 0 16.969 13.756 30.724 30.724 30.724 4.445 0 8.669-0.944 12.483-2.642l-0.195 0.078 397.312-176.128 148.48 66.048-346.624 153.6c-10.864 4.926-18.284 15.677-18.284 28.16 0 17.026 13.802 30.828 30.828 30.828 4.542 0 8.855-0.982 12.737-2.746l-0.193 0.079 397.824-176.128 172.544 76.288c3.689 1.685 8.002 2.668 12.544 2.668 17.026 0 30.828-13.802 30.828-30.828 0-12.483-7.42-23.234-18.090-28.081l-0.193-0.079-391.68-173.056v-436.224c0-16.966-13.754-30.72-30.72-30.72v0zM648.704 196.096c-16.966 0-30.72 13.754-30.72 30.72v0 153.6c0 0.001 0 0.003 0 0.005 0 12.521 7.491 23.293 18.237 28.078l0.195 0.078 163.84 72.192c3.619 1.621 7.843 2.565 12.288 2.565 16.966 0 30.72-13.754 30.72-30.72 0-0.002 0-0.003 0-0.005v0-153.6c0-0.001 0-0.003 0-0.005 0-12.521-7.491-23.293-18.237-28.078l-0.195-0.078-163.84-72.192c-3.616-1.618-7.837-2.56-12.277-2.56-0.004 0-0.008 0-0.011 0h0.001zM679.424 360.96v-87.040l102.4 45.056v87.040z" />
<glyph unicode="&#xe944;" glyph-name="alarm" data-tags="alarm" d="M656.043 160.939h-322.56c-45.096 0.193-81.579 36.796-81.579 81.919 0 0.12 0 0.24 0.001 0.361v-0.019 294.571c5.692 131.030 111.618 235.529 242.706 238.927l0.324 0.007c134.239-2.476 242.246-111.32 243.37-245.652l0.001-0.108v-287.744c0-0.102 0.001-0.222 0.001-0.342 0-45.243-36.677-81.92-81.92-81.92-0.12 0-0.241 0-0.361 0.001h0.019zM494.933 707.413c-94.025-2.636-169.847-77.033-174.744-170.222l-0.019-0.444v-293.547c0-7.541 6.113-13.653 13.653-13.653h322.56c7.541 0 13.653 6.113 13.653 13.653v0 286.72c-1.827 96.452-78.865 174.325-174.81 177.486l-0.294 0.008zM211.627 243.2h566.613c22.622 0 40.96-18.338 40.96-40.96s-18.338-40.96-40.96-40.96h-566.613c-22.622 0-40.96 18.338-40.96 40.96s18.338 40.96 40.96 40.96v0zM576.171 120.32v0c-2.846-42.543-38.052-75.974-81.067-75.974s-78.221 33.431-81.053 75.727l-0.013 0.247h162.133zM488.107 857.6v0c18.851 0 34.133-15.282 34.133-34.133v0-54.613c0-18.851-15.282-34.133-34.133-34.133v0 0c-18.851 0-34.133 15.282-34.133 34.133v0 54.613c0 18.851 15.282 34.133 34.133 34.133v0z" />
</font>
</defs>
</svg>
